COMMENT vga
STARTFONT 2.1
FONT vga
SIZE 12 75 75
FONTBOUNDINGBOX 8 12 0 -4
STARTPROPERTIES 3
FONT_DESCENT 4
FONT_ASCENT 8
AVERAGE_WIDTH 80
DEFAULT_CHAR 0
ENDPROPERTIES
CHARS 485
STARTCHAR u0020
ENCODING 32
SWIDTH 666 0
DWIDTH 8 0
BBX 8 12 0 -4
BITMAP
00
00
00
00
00
00
00
00
00
00
00
00
ENDCHAR
STARTCHAR u005A
ENCODING 90
SWIDTH 666 0
DWIDTH 8 0
BBX 8 12 0 -4
BITMAP
00
FE
C6
8C
18
30
60
C2
C6
FE
00
00
ENDCHAR
STARTCHAR u1268
ENCODING 4712
SWIDTH 666 0
DWIDTH 8 0
BBX 8 12 0 -4
BITMAP
FE
00
3C
46
C6
C6
C6
C6
C6
C6
C6
00
ENDCHAR
STARTCHAR u0076
ENCODING 118
SWIDTH 666 0
DWIDTH 8 0
BBX 8 12 0 -4
BITMAP
00
00
00
00
C6
C6
C6
6C
38
10
00
00
ENDCHAR
STARTCHAR u0047
ENCODING 71
SWIDTH 666 0
DWIDTH 8 0
BBX 8 12 0 -4
BITMAP
00
7C
C6
C6
C0
C0
CE
C6
C6
7C
00
00
ENDCHAR
STARTCHAR u0066
ENCODING 102
SWIDTH 666 0
DWIDTH 8 0
BBX 8 12 0 -4
BITMAP
00
1C
36
30
30
FC
30
30
30
78
00
00
ENDCHAR
STARTCHAR u1308
ENCODING 4872
SWIDTH 666 0
DWIDTH 8 0
BBX 8 12 0 -4
BITMAP
00
F8
0C
0C
0C
0C
0C
0C
0C
0C
0C
00
ENDCHAR
STARTCHAR u1335
ENCODING 4917
SWIDTH 666 0
DWIDTH 8 0
BBX 8 12 0 -4
BITMAP
20
20
70
DF
88
88
D8
70
38
6C
C6
C6
ENDCHAR
STARTCHAR u1305
ENCODING 4869
SWIDTH 666 0
DWIDTH 8 0
BBX 8 12 0 -4
BITMAP
FC
30
78
CF
CC
F8
60
30
78
CC
CC
CC
ENDCHAR
STARTCHAR u12A0
ENCODING 4768
SWIDTH 666 0
DWIDTH 8 0
BBX 8 12 0 -4
BITMAP
C0
C0
70
30
78
CC
C6
C6
C6
C6
C6
00
ENDCHAR
STARTCHAR u134E
ENCODING 4942
SWIDTH 666 0
DWIDTH 8 0
BBX 8 12 0 -4
BITMAP
7E
F2
DE
C0
C0
F8
CC
CC
7F
0C
0C
00
ENDCHAR
STARTCHAR u12FF
ENCODING 4863
SWIDTH 666 0
DWIDTH 8 0
BBX 8 12 0 -4
BITMAP
78
CC
FC
CC
F8
60
30
7C
C6
1F
11
00
ENDCHAR
STARTCHAR u1214
ENCODING 4628
SWIDTH 666 0
DWIDTH 8 0
BBX 8 12 0 -4
BITMAP
10
10
10
10
7C
D6
D6
D6
D7
D1
D7
00
ENDCHAR
STARTCHAR u1206
ENCODING 4614
SWIDTH 666 0
DWIDTH 8 0
BBX 8 12 0 -4
BITMAP
CF
C9
CF
CC
CC
CC
CC
CC
CC
FC
78
00
ENDCHAR
STARTCHAR u124B
ENCODING 4683
SWIDTH 666 0
DWIDTH 8 0
BBX 8 12 0 -4
BITMAP
18
18
7E
DB
DB
7E
18
18
18
7E
42
00
ENDCHAR
STARTCHAR u0037
ENCODING 55
SWIDTH 666 0
DWIDTH 8 0
BBX 8 12 0 -4
BITMAP
00
FE
C6
0C
18
30
30
30
30
30
00
00
ENDCHAR
STARTCHAR u1209
ENCODING 4617
SWIDTH 666 0
DWIDTH 8 0
BBX 8 12 0 -4
BITMAP
0C
18
30
78
DC
CC
CF
CF
CC
CC
CC
00
ENDCHAR
STARTCHAR u0054
ENCODING 84
SWIDTH 666 0
DWIDTH 8 0
BBX 8 12 0 -4
BITMAP
00
7E
5A
18
18
18
18
18
18
3C
00
00
ENDCHAR
STARTCHAR u1344
ENCODING 4932
SWIDTH 666 0
DWIDTH 8 0
BBX 8 12 0 -4
BITMAP
78
CC
CC
FC
CC
CC
7C
0C
0F
09
0F
00
ENDCHAR
STARTCHAR u0039
ENCODING 57
SWIDTH 666 0
DWIDTH 8 0
BBX 8 12 0 -4
BITMAP
00
7C
C6
C6
C6
7E
06
06
C6
7C
00
00
ENDCHAR
STARTCHAR u1363
ENCODING 4963
SWIDTH 666 0
DWIDTH 8 0
BBX 8 12 0 -4
BITMAP
00
06
7E
60
18
18
00
18
18
00
00
00
ENDCHAR
STARTCHAR u126A
ENCODING 4714
SWIDTH 666 0
DWIDTH 8 0
BBX 8 12 0 -4
BITMAP
FC
00
38
4C
CC
CC
CC
CC
CC
CF
CF
00
ENDCHAR
STARTCHAR u12ED
ENCODING 4845
SWIDTH 666 0
DWIDTH 8 0
BBX 8 12 0 -4
BITMAP
38
6C
C6
C6
66
3C
1B
1B
7E
C0
C0
00
ENDCHAR
STARTCHAR u120A
ENCODING 4618
SWIDTH 666 0
DWIDTH 8 0
BBX 8 12 0 -4
BITMAP
0C
18
30
78
DC
CC
CC
CC
CC
CC
CF
00
ENDCHAR
STARTCHAR u2190
ENCODING 8592
SWIDTH 666 0
DWIDTH 8 0
BBX 8 12 0 -4
BITMAP
00
00
00
30
60
FE
60
30
00
00
00
00
ENDCHAR
STARTCHAR u1348
ENCODING 4936
SWIDTH 666 0
DWIDTH 8 0
BBX 8 12 0 -4
BITMAP
30
30
30
30
30
60
C0
F0
C8
CF
7F
00
ENDCHAR
STARTCHAR u1379
ENCODING 4985
SWIDTH 666 0
DWIDTH 8 0
BBX 8 12 0 -4
BITMAP
FE
C6
00
FE
EE
6C
6C
6C
6C
00
FE
C6
ENDCHAR
STARTCHAR u1261
ENCODING 4705
SWIDTH 666 0
DWIDTH 8 0
BBX 8 12 0 -4
BITMAP
00
38
4C
CC
CC
CC
CF
CF
CC
CC
CC
00
ENDCHAR
STARTCHAR u0059
ENCODING 89
SWIDTH 666 0
DWIDTH 8 0
BBX 8 12 0 -4
BITMAP
00
66
66
66
66
3C
18
18
18
3C
00
00
ENDCHAR
STARTCHAR uFDFD
ENCODING 65021
SWIDTH 666 0
DWIDTH 8 0
BBX 8 12 0 -4
BITMAP
00
00
1B
36
6C
D8
6C
36
1B
00
00
00
ENDCHAR
STARTCHAR u12A9
ENCODING 4777
SWIDTH 666 0
DWIDTH 8 0
BBX 8 12 0 -4
BITMAP
80
80
BC
66
66
66
67
66
66
66
66
00
ENDCHAR
STARTCHAR u0023
ENCODING 35
SWIDTH 666 0
DWIDTH 8 0
BBX 8 12 0 -4
BITMAP
00
6C
FE
6C
6C
FE
6C
00
00
00
00
00
ENDCHAR
STARTCHAR u12C9
ENCODING 4809
SWIDTH 666 0
DWIDTH 8 0
BBX 8 12 0 -4
BITMAP
00
00
7C
D6
D6
D6
D6
D6
D7
7F
00
00
ENDCHAR
STARTCHAR u1248
ENCODING 4680
SWIDTH 666 0
DWIDTH 8 0
BBX 8 12 0 -4
BITMAP
18
18
18
7E
DB
DB
7E
1F
1D
1F
18
00
ENDCHAR
STARTCHAR u1349
ENCODING 4937
SWIDTH 666 0
DWIDTH 8 0
BBX 8 12 0 -4
BITMAP
60
60
60
60
C0
F8
CC
CC
7F
0C
18
30
ENDCHAR
STARTCHAR u131D
ENCODING 4893
SWIDTH 666 0
DWIDTH 8 0
BBX 8 12 0 -4
BITMAP
FC
00
FC
96
E6
06
06
06
06
06
06
00
ENDCHAR
STARTCHAR u12E9
ENCODING 4841
SWIDTH 666 0
DWIDTH 8 0
BBX 8 12 0 -4
BITMAP
38
6C
C6
C6
66
3C
18
1F
1F
18
18
00
ENDCHAR
STARTCHAR u12B4
ENCODING 4788
SWIDTH 666 0
DWIDTH 8 0
BBX 8 12 0 -4
BITMAP
80
80
BC
66
66
66
06
07
05
07
1C
00
ENDCHAR
STARTCHAR u126D
ENCODING 4717
SWIDTH 666 0
DWIDTH 8 0
BBX 8 12 0 -4
BITMAP
7F
00
1E
23
63
63
E3
E3
63
63
63
00
ENDCHAR
STARTCHAR u132D
ENCODING 4909
SWIDTH 666 0
DWIDTH 8 0
BBX 8 12 0 -4
BITMAP
7C
92
92
92
D3
D3
08
08
08
0C
0C
00
ENDCHAR
STARTCHAR u1301
ENCODING 4865
SWIDTH 666 0
DWIDTH 8 0
BBX 8 12 0 -4
BITMAP
FC
30
78
CC
CC
F8
60
30
7F
CF
CC
00
ENDCHAR
STARTCHAR u2665
ENCODING 9829
SWIDTH 666 0
DWIDTH 8 0
BBX 8 12 0 -4
BITMAP
00
00
00
6E
DB
DB
DF
D8
DB
6E
00
00
ENDCHAR
STARTCHAR u12A6
ENCODING 4774
SWIDTH 666 0
DWIDTH 8 0
BBX 8 12 0 -4
BITMAP
C0
C0
70
30
78
CC
C6
C6
C0
C0
C0
00
ENDCHAR
STARTCHAR u1204
ENCODING 4612
SWIDTH 666 0
DWIDTH 8 0
BBX 8 12 0 -4
BITMAP
C6
C6
C6
C6
CE
7E
3E
0C
0C
1F
19
1F
ENDCHAR
STARTCHAR u12CD
ENCODING 4813
SWIDTH 666 0
DWIDTH 8 0
BBX 8 12 0 -4
BITMAP
00
00
7C
D6
D6
D7
D7
D6
D6
7C
00
00
ENDCHAR
STARTCHAR u123B
ENCODING 4667
SWIDTH 666 0
DWIDTH 8 0
BBX 8 12 0 -4
BITMAP
FC
30
30
78
CC
CC
CC
CC
0C
0C
0C
00
ENDCHAR
STARTCHAR u12D5
ENCODING 4821
SWIDTH 666 0
DWIDTH 8 0
BBX 8 12 0 -4
BITMAP
30
30
78
CC
CC
CC
CC
CC
CC
FC
60
00
ENDCHAR
STARTCHAR u005D
ENCODING 93
SWIDTH 666 0
DWIDTH 8 0
BBX 8 12 0 -4
BITMAP
00
7C
0C
0C
0C
0C
0C
0C
0C
7C
00
00
ENDCHAR
STARTCHAR u1215
ENCODING 4629
SWIDTH 666 0
DWIDTH 8 0
BBX 8 12 0 -4
BITMAP
60
30
10
10
7C
D6
D6
D6
D6
D6
D6
00
ENDCHAR
STARTCHAR u133E
ENCODING 4926
SWIDTH 666 0
DWIDTH 8 0
BBX 8 12 0 -4
BITMAP
38
6C
44
44
6C
38
38
6C
C6
C0
C0
00
ENDCHAR
STARTCHAR u1282
ENCODING 4738
SWIDTH 666 0
DWIDTH 8 0
BBX 8 12 0 -4
BITMAP
18
F8
18
0E
06
06
06
06
06
06
07
00
ENDCHAR
STARTCHAR u266A
ENCODING 9834
SWIDTH 666 0
DWIDTH 8 0
BBX 8 12 0 -4
BITMAP
00
00
00
00
00
00
FF
FF
FF
FF
FF
FF
ENDCHAR
STARTCHAR u0072
ENCODING 114
SWIDTH 666 0
DWIDTH 8 0
BBX 8 12 0 -4
BITMAP
00
00
00
00
DC
66
60
60
60
F0
00
00
ENDCHAR
STARTCHAR u136C
ENCODING 4972
SWIDTH 666 0
DWIDTH 8 0
BBX 8 12 0 -4
BITMAP
FE
C6
38
6C
6C
6C
6C
6C
38
00
FE
C6
ENDCHAR
STARTCHAR u1369
ENCODING 4969
SWIDTH 666 0
DWIDTH 8 0
BBX 8 12 0 -4
BITMAP
FE
C6
30
30
70
E8
CC
CC
78
00
FE
C6
ENDCHAR
STARTCHAR u121E
ENCODING 4638
SWIDTH 666 0
DWIDTH 8 0
BBX 8 12 0 -4
BITMAP
7C
AA
AA
AA
AA
6C
20
20
20
20
20
00
ENDCHAR
STARTCHAR u003A
ENCODING 58
SWIDTH 666 0
DWIDTH 8 0
BBX 8 12 0 -4
BITMAP
00
00
00
0C
0C
00
00
0C
0C
00
00
00
ENDCHAR
STARTCHAR u1374
ENCODING 4980
SWIDTH 666 0
DWIDTH 8 0
BBX 8 12 0 -4
BITMAP
FF
C3
00
6E
DB
DB
DB
DB
73
00
FF
C3
ENDCHAR
STARTCHAR u1272
ENCODING 4722
SWIDTH 666 0
DWIDTH 8 0
BBX 8 12 0 -4
BITMAP
18
18
18
FF
99
18
18
18
18
1F
1F
00
ENDCHAR
STARTCHAR u122E
ENCODING 4654
SWIDTH 666 0
DWIDTH 8 0
BBX 8 12 0 -4
BITMAP
7E
F2
DE
C0
C0
C0
C0
C0
C0
FE
7E
00
ENDCHAR
STARTCHAR u2195
ENCODING 8597
SWIDTH 666 0
DWIDTH 8 0
BBX 8 12 0 -4
BITMAP
88
88
50
50
20
00
3E
08
08
08
08
00
ENDCHAR
STARTCHAR u1376
ENCODING 4982
SWIDTH 666 0
DWIDTH 8 0
BBX 8 12 0 -4
BITMAP
FF
C3
00
66
66
66
3C
0C
0C
0C
FF
C3
ENDCHAR
STARTCHAR uFDF0
ENCODING 65008
SWIDTH 666 0
DWIDTH 8 0
BBX 8 12 0 -4
BITMAP
00
18
99
42
24
DB
DB
24
42
99
18
00
ENDCHAR
STARTCHAR u131E
ENCODING 4894
SWIDTH 666 0
DWIDTH 8 0
BBX 8 12 0 -4
BITMAP
FC
20
F8
0C
0C
0C
0C
0C
0C
0C
0C
00
ENDCHAR
STARTCHAR u1210
ENCODING 4624
SWIDTH 666 0
DWIDTH 8 0
BBX 8 12 0 -4
BITMAP
10
10
10
10
7C
D6
D6
D6
D6
D6
D6
00
ENDCHAR
STARTCHAR u0065
ENCODING 101
SWIDTH 666 0
DWIDTH 8 0
BBX 8 12 0 -4
BITMAP
00
00
00
00
7C
C6
FE
C0
C6
7C
00
00
ENDCHAR
STARTCHAR u0049
ENCODING 73
SWIDTH 666 0
DWIDTH 8 0
BBX 8 12 0 -4
BITMAP
00
3C
18
18
18
18
18
18
18
3C
00
00
ENDCHAR
STARTCHAR u1352
ENCODING 4946
SWIDTH 666 0
DWIDTH 8 0
BBX 8 12 0 -4
BITMAP
FE
92
10
10
10
10
10
10
10
10
1E
00
ENDCHAR
STARTCHAR u004C
ENCODING 76
SWIDTH 666 0
DWIDTH 8 0
BBX 8 12 0 -4
BITMAP
00
F0
60
60
60
60
60
62
66
FE
00
00
ENDCHAR
STARTCHAR u003E
ENCODING 62
SWIDTH 666 0
DWIDTH 8 0
BBX 8 12 0 -4
BITMAP
00
60
30
18
0C
06
0C
18
30
60
00
00
ENDCHAR
STARTCHAR u1378
ENCODING 4984
SWIDTH 666 0
DWIDTH 8 0
BBX 8 12 0 -4
BITMAP
FF
C3
00
3F
65
C7
C0
C0
7E
06
FF
C3
ENDCHAR
STARTCHAR u12E4
ENCODING 4836
SWIDTH 666 0
DWIDTH 8 0
BBX 8 12 0 -4
BITMAP
E7
66
66
7E
66
66
66
66
67
65
67
00
ENDCHAR
STARTCHAR u127D
ENCODING 4733
SWIDTH 666 0
DWIDTH 8 0
BBX 8 12 0 -4
BITMAP
FE
B2
18
18
FF
99
18
18
18
18
18
00
ENDCHAR
STARTCHAR u12CE
ENCODING 4814
SWIDTH 666 0
DWIDTH 8 0
BBX 8 12 0 -4
BITMAP
7E
DB
DB
DB
7E
18
30
60
C0
C0
C0
00
ENDCHAR
STARTCHAR u1279
ENCODING 4729
SWIDTH 666 0
DWIDTH 8 0
BBX 8 12 0 -4
BITMAP
FF
99
18
18
FF
99
18
1E
1E
18
18
00
ENDCHAR
STARTCHAR u0043
ENCODING 67
SWIDTH 666 0
DWIDTH 8 0
BBX 8 12 0 -4
BITMAP
00
3C
66
C0
C0
C0
C0
C0
66
3C
00
00
ENDCHAR
STARTCHAR u136D
ENCODING 4973
SWIDTH 666 0
DWIDTH 8 0
BBX 8 12 0 -4
BITMAP
FF
DB
18
30
7E
C6
C0
CC
7E
00
FF
C3
ENDCHAR
STARTCHAR u1331
ENCODING 4913
SWIDTH 666 0
DWIDTH 8 0
BBX 8 12 0 -4
BITMAP
10
10
38
6C
44
44
6C
38
38
6F
C7
C6
ENDCHAR
STARTCHAR u12BA
ENCODING 4794
SWIDTH 666 0
DWIDTH 8 0
BBX 8 12 0 -4
BITMAP
30
E0
9C
66
66
66
66
66
66
66
67
00
ENDCHAR
STARTCHAR u1365
ENCODING 4965
SWIDTH 666 0
DWIDTH 8 0
BBX 8 12 0 -4
BITMAP
00
00
18
18
06
7E
60
18
18
00
00
00
ENDCHAR
STARTCHAR u1377
ENCODING 4983
SWIDTH 666 0
DWIDTH 8 0
BBX 8 12 0 -4
BITMAP
FF
C3
00
FF
DB
1C
0C
7F
63
00
FF
C3
ENDCHAR
STARTCHAR u12CA
ENCODING 4810
SWIDTH 666 0
DWIDTH 8 0
BBX 8 12 0 -4
BITMAP
7E
DB
DB
DB
7E
18
18
18
18
1E
1E
00
ENDCHAR
STARTCHAR u1236
ENCODING 4662
SWIDTH 666 0
DWIDTH 8 0
BBX 8 12 0 -4
BITMAP
30
30
30
78
CC
CC
CC
CC
C0
C0
C0
00
ENDCHAR
STARTCHAR u1371
ENCODING 4977
SWIDTH 666 0
DWIDTH 8 0
BBX 8 12 0 -4
BITMAP
FF
C3
00
66
66
7E
66
64
38
00
FF
C3
ENDCHAR
STARTCHAR u12F5
ENCODING 4853
SWIDTH 666 0
DWIDTH 8 0
BBX 8 12 0 -4
BITMAP
78
CC
CF
CC
F8
60
30
78
CC
CC
CC
00
ENDCHAR
STARTCHAR u1219
ENCODING 4633
SWIDTH 666 0
DWIDTH 8 0
BBX 8 12 0 -4
BITMAP
00
00
7C
AA
AA
AB
AB
AA
AA
6C
00
00
ENDCHAR
STARTCHAR u123F
ENCODING 4671
SWIDTH 666 0
DWIDTH 8 0
BBX 8 12 0 -4
BITMAP
FC
30
30
78
CC
CC
CC
CC
0C
3E
22
00
ENDCHAR
STARTCHAR u12F1
ENCODING 4849
SWIDTH 666 0
DWIDTH 8 0
BBX 8 12 0 -4
BITMAP
78
CC
CC
CC
F8
60
30
78
CF
CF
CC
00
ENDCHAR
STARTCHAR u1221
ENCODING 4641
SWIDTH 666 0
DWIDTH 8 0
BBX 8 12 0 -4
BITMAP
00
D4
D4
D4
D7
D7
D4
DC
D0
70
00
00
ENDCHAR
STARTCHAR u1274
ENCODING 4724
SWIDTH 666 0
DWIDTH 8 0
BBX 8 12 0 -4
BITMAP
18
18
18
FF
99
18
18
18
1E
12
1E
00
ENDCHAR
STARTCHAR u129D
ENCODING 4765
SWIDTH 666 0
DWIDTH 8 0
BBX 8 12 0 -4
BITMAP
FE
10
7C
4C
0C
0F
03
03
06
06
06
00
ENDCHAR
STARTCHAR u12FA
ENCODING 4858
SWIDTH 666 0
DWIDTH 8 0
BBX 8 12 0 -4
BITMAP
78
CC
FC
CC
F8
60
30
7C
CC
CF
CF
00
ENDCHAR
STARTCHAR u122D
ENCODING 4653
SWIDTH 666 0
DWIDTH 8 0
BBX 8 12 0 -4
BITMAP
7C
FC
C0
C0
C0
C0
C0
C0
C0
FE
7E
00
ENDCHAR
STARTCHAR u1201
ENCODING 4609
SWIDTH 666 0
DWIDTH 8 0
BBX 8 12 0 -4
BITMAP
CC
CC
CC
CC
CF
CF
CC
CC
D8
D8
70
00
ENDCHAR
STARTCHAR u12B5
ENCODING 4789
SWIDTH 666 0
DWIDTH 8 0
BBX 8 12 0 -4
BITMAP
80
81
B9
67
65
65
64
64
64
64
64
00
ENDCHAR
STARTCHAR u1299
ENCODING 4761
SWIDTH 666 0
DWIDTH 8 0
BBX 8 12 0 -4
BITMAP
84
FC
30
30
3C
0C
0F
0F
0C
0C
0C
00
ENDCHAR
STARTCHAR u124C
ENCODING 4684
SWIDTH 666 0
DWIDTH 8 0
BBX 8 12 0 -4
BITMAP
18
18
18
7E
DB
DB
7E
18
1E
1A
7E
00
ENDCHAR
STARTCHAR u0031
ENCODING 49
SWIDTH 666 0
DWIDTH 8 0
BBX 8 12 0 -4
BITMAP
00
18
78
18
18
18
18
18
18
7E
00
00
ENDCHAR
STARTCHAR u12F2
ENCODING 4850
SWIDTH 666 0
DWIDTH 8 0
BBX 8 12 0 -4
BITMAP
78
CC
CC
CC
F8
60
30
78
CC
CF
CF
00
ENDCHAR
STARTCHAR u1330
ENCODING 4912
SWIDTH 666 0
DWIDTH 8 0
BBX 8 12 0 -4
BITMAP
10
10
38
6C
44
44
6C
38
38
6C
C6
C6
ENDCHAR
STARTCHAR u007C
ENCODING 124
SWIDTH 666 0
DWIDTH 8 0
BBX 8 12 0 -4
BITMAP
00
18
18
18
18
18
18
18
18
18
00
00
ENDCHAR
STARTCHAR u0068
ENCODING 104
SWIDTH 666 0
DWIDTH 8 0
BBX 8 12 0 -4
BITMAP
00
E0
60
60
6C
76
66
66
66
E6
00
00
ENDCHAR
STARTCHAR u2192
ENCODING 8594
SWIDTH 666 0
DWIDTH 8 0
BBX 8 12 0 -4
BITMAP
00
00
00
18
0C
FE
0C
18
00
00
00
00
ENDCHAR
STARTCHAR u12FC
ENCODING 4860
SWIDTH 666 0
DWIDTH 8 0
BBX 8 12 0 -4
BITMAP
78
CC
FC
CC
F8
60
30
7C
CF
C9
CF
00
ENDCHAR
STARTCHAR u122B
ENCODING 4651
SWIDTH 666 0
DWIDTH 8 0
BBX 8 12 0 -4
BITMAP
30
30
30
30
30
30
60
C0
CE
CE
78
00
ENDCHAR
STARTCHAR u1231
ENCODING 4657
SWIDTH 666 0
DWIDTH 8 0
BBX 8 12 0 -4
BITMAP
30
30
30
78
CC
CC
CF
CF
CC
CC
CC
00
ENDCHAR
STARTCHAR u1356
ENCODING 4950
SWIDTH 666 0
DWIDTH 8 0
BBX 8 12 0 -4
BITMAP
FE
92
10
10
20
20
40
40
80
80
80
00
ENDCHAR
STARTCHAR u1288
ENCODING 4744
SWIDTH 666 0
DWIDTH 8 0
BBX 8 12 0 -4
BITMAP
30
F0
37
1D
0F
0C
0C
0C
0C
0C
0C
00
ENDCHAR
STARTCHAR u263A
ENCODING 9786
SWIDTH 666 0
DWIDTH 8 0
BBX 8 12 0 -4
BITMAP
00
00
00
76
DC
00
76
DC
00
00
00
00
ENDCHAR
STARTCHAR u129E
ENCODING 4766
SWIDTH 666 0
DWIDTH 8 0
BBX 8 12 0 -4
BITMAP
FE
10
7E
D2
CE
C0
78
18
18
18
18
00
ENDCHAR
STARTCHAR u137C
ENCODING 4988
SWIDTH 666 0
DWIDTH 8 0
BBX 8 12 0 -4
BITMAP
FF
C3
66
99
99
AA
CC
CC
CC
CC
FF
C3
ENDCHAR
STARTCHAR u1345
ENCODING 4933
SWIDTH 666 0
DWIDTH 8 0
BBX 8 12 0 -4
BITMAP
30
30
78
CC
CC
FC
CC
CC
CC
FC
60
00
ENDCHAR
STARTCHAR u1326
ENCODING 4902
SWIDTH 666 0
DWIDTH 8 0
BBX 8 12 0 -4
BITMAP
7C
92
92
92
92
92
80
80
80
80
80
00
ENDCHAR
STARTCHAR u12AD
ENCODING 4781
SWIDTH 666 0
DWIDTH 8 0
BBX 8 12 0 -4
BITMAP
80
80
BC
66
66
66
76
36
36
36
36
00
ENDCHAR
STARTCHAR u126C
ENCODING 4716
SWIDTH 666 0
DWIDTH 8 0
BBX 8 12 0 -4
BITMAP
FC
00
38
4C
CC
CC
CC
CC
CF
C9
CF
00
ENDCHAR
STARTCHAR u0060
ENCODING 96
SWIDTH 666 0
DWIDTH 8 0
BBX 8 12 0 -4
BITMAP
1C
1C
18
0C
00
00
00
00
00
00
00
00
ENDCHAR
STARTCHAR u1302
ENCODING 4866
SWIDTH 666 0
DWIDTH 8 0
BBX 8 12 0 -4
BITMAP
FC
30
78
CC
CC
F8
60
30
7C
CF
CF
00
ENDCHAR
STARTCHAR u2640
ENCODING 9792
SWIDTH 666 0
DWIDTH 8 0
BBX 8 12 0 -4
BITMAP
FF
FF
FF
FF
FF
FF
FF
FF
FF
FF
FF
FF
ENDCHAR
STARTCHAR u128D
ENCODING 4749
SWIDTH 666 0
DWIDTH 8 0
BBX 8 12 0 -4
BITMAP
30
F1
31
1F
0D
0D
0C
0C
0C
0C
0C
00
ENDCHAR
STARTCHAR u1329
ENCODING 4905
SWIDTH 666 0
DWIDTH 8 0
BBX 8 12 0 -4
BITMAP
7C
92
92
92
92
92
92
92
92
DB
DB
00
ENDCHAR
STARTCHAR u12DA
ENCODING 4826
SWIDTH 666 0
DWIDTH 8 0
BBX 8 12 0 -4
BITMAP
CC
CC
CC
FC
CC
CC
CC
CC
CC
CF
CF
00
ENDCHAR
STARTCHAR u1254
ENCODING 4692
SWIDTH 666 0
DWIDTH 8 0
BBX 8 12 0 -4
BITMAP
7E
18
18
7E
DB
DB
7E
18
1E
12
1E
00
ENDCHAR
STARTCHAR u1239
ENCODING 4665
SWIDTH 666 0
DWIDTH 8 0
BBX 8 12 0 -4
BITMAP
FC
30
30
78
CC
CC
CF
CF
CC
CC
CC
00
ENDCHAR
STARTCHAR u25D8
ENCODING 9688
SWIDTH 666 0
DWIDTH 8 0
BBX 8 12 0 -4
BITMAP
80
80
80
80
F8
00
3E
20
38
20
20
00
ENDCHAR
STARTCHAR u002F
ENCODING 47
SWIDTH 666 0
DWIDTH 8 0
BBX 8 12 0 -4
BITMAP
00
00
00
06
0C
18
30
60
C0
00
00
00
ENDCHAR
STARTCHAR u1341
ENCODING 4929
SWIDTH 666 0
DWIDTH 8 0
BBX 8 12 0 -4
BITMAP
18
FC
CC
CC
FC
CC
CF
CF
CC
FC
60
00
ENDCHAR
STARTCHAR u0062
ENCODING 98
SWIDTH 666 0
DWIDTH 8 0
BBX 8 12 0 -4
BITMAP
00
E0
60
60
7C
66
66
66
66
FC
00
00
ENDCHAR
STARTCHAR u1297
ENCODING 4759
SWIDTH 666 0
DWIDTH 8 0
BBX 8 12 0 -4
BITMAP
7C
C6
C6
C0
78
18
18
18
18
7E
42
00
ENDCHAR
STARTCHAR u1290
ENCODING 4752
SWIDTH 666 0
DWIDTH 8 0
BBX 8 12 0 -4
BITMAP
C0
C0
C0
F8
18
18
18
18
18
18
18
00
ENDCHAR
STARTCHAR u0025
ENCODING 37
SWIDTH 666 0
DWIDTH 8 0
BBX 8 12 0 -4
BITMAP
00
00
00
62
66
0C
18
30
66
C6
00
00
ENDCHAR
STARTCHAR u002B
ENCODING 43
SWIDTH 666 0
DWIDTH 8 0
BBX 8 12 0 -4
BITMAP
00
00
00
18
18
7E
18
18
00
00
00
00
ENDCHAR
STARTCHAR u2660
ENCODING 9824
SWIDTH 666 0
DWIDTH 8 0
BBX 8 12 0 -4
BITMAP
F8
80
E0
80
80
00
3E
20
38
20
20
00
ENDCHAR
STARTCHAR u25BA
ENCODING 9658
SWIDTH 666 0
DWIDTH 8 0
BBX 8 12 0 -4
BITMAP
0F
0F
0F
0F
0F
0F
0F
0F
0F
0F
0F
0F
ENDCHAR
STARTCHAR u263B
ENCODING 9787
SWIDTH 666 0
DWIDTH 8 0
BBX 8 12 0 -4
BITMAP
6E
D8
D8
D8
D8
DE
D8
D8
D8
6E
00
00
ENDCHAR
STARTCHAR u221F
ENCODING 8735
SWIDTH 666 0
DWIDTH 8 0
BBX 8 12 0 -4
BITMAP
00
18
3C
7E
18
18
18
7E
3C
18
00
00
ENDCHAR
STARTCHAR u12FE
ENCODING 4862
SWIDTH 666 0
DWIDTH 8 0
BBX 8 12 0 -4
BITMAP
78
CC
FC
CC
F8
60
30
7E
C6
C0
C0
00
ENDCHAR
STARTCHAR u1312
ENCODING 4882
SWIDTH 666 0
DWIDTH 8 0
BBX 8 12 0 -4
BITMAP
00
F0
18
18
1A
1A
1E
1A
1A
18
18
00
ENDCHAR
STARTCHAR u25D9
ENCODING 9689
SWIDTH 666 0
DWIDTH 8 0
BBX 8 12 0 -4
BITMAP
55
AA
55
AA
55
AA
55
AA
55
AA
55
AA
ENDCHAR
STARTCHAR uFDFC
ENCODING 65020
SWIDTH 666 0
DWIDTH 8 0
BBX 8 12 0 -4
BITMAP
00
00
00
00
00
00
00
00
18
18
00
00
ENDCHAR
STARTCHAR u1339
ENCODING 4921
SWIDTH 666 0
DWIDTH 8 0
BBX 8 12 0 -4
BITMAP
38
6C
44
44
6C
38
38
6C
C7
C7
C6
00
ENDCHAR
STARTCHAR u1267
ENCODING 4711
SWIDTH 666 0
DWIDTH 8 0
BBX 8 12 0 -4
BITMAP
00
3C
46
C6
C6
C6
C6
06
06
1F
11
00
ENDCHAR
STARTCHAR u1213
ENCODING 4627
SWIDTH 666 0
DWIDTH 8 0
BBX 8 12 0 -4
BITMAP
10
10
10
10
7C
D6
D6
D6
06
06
06
00
ENDCHAR
STARTCHAR u0077
ENCODING 119
SWIDTH 666 0
DWIDTH 8 0
BBX 8 12 0 -4
BITMAP
00
00
00
00
C6
C6
D6
D6
FE
6C
00
00
ENDCHAR
STARTCHAR u1262
ENCODING 4706
SWIDTH 666 0
DWIDTH 8 0
BBX 8 12 0 -4
BITMAP
00
38
4C
CC
CC
CC
CC
CC
CC
CF
CF
00
ENDCHAR
STARTCHAR u130B
ENCODING 4875
SWIDTH 666 0
DWIDTH 8 0
BBX 8 12 0 -4
BITMAP
00
F8
0C
0C
0C
0C
0C
18
30
60
C0
00
ENDCHAR
STARTCHAR u132C
ENCODING 4908
SWIDTH 666 0
DWIDTH 8 0
BBX 8 12 0 -4
BITMAP
7C
92
92
92
92
92
92
92
92
DD
DA
00
ENDCHAR
STARTCHAR u1286
ENCODING 4742
SWIDTH 666 0
DWIDTH 8 0
BBX 8 12 0 -4
BITMAP
00
0F
1D
7B
D8
CE
06
06
06
06
06
00
ENDCHAR
STARTCHAR u1238
ENCODING 4664
SWIDTH 666 0
DWIDTH 8 0
BBX 8 12 0 -4
BITMAP
FC
30
30
78
CC
CC
CC
CC
CC
CC
CC
00
ENDCHAR
STARTCHAR u1375
ENCODING 4981
SWIDTH 666 0
DWIDTH 8 0
BBX 8 12 0 -4
BITMAP
FF
C3
00
DB
DB
DF
DB
73
03
00
FF
C3
ENDCHAR
STARTCHAR u12E6
ENCODING 4838
SWIDTH 666 0
DWIDTH 8 0
BBX 8 12 0 -4
BITMAP
E7
66
66
7E
66
66
66
60
60
60
60
00
ENDCHAR
STARTCHAR u1265
ENCODING 4709
SWIDTH 666 0
DWIDTH 8 0
BBX 8 12 0 -4
BITMAP
00
1C
26
66
66
E6
E6
66
66
66
66
00
ENDCHAR
STARTCHAR u004A
ENCODING 74
SWIDTH 666 0
DWIDTH 8 0
BBX 8 12 0 -4
BITMAP
00
3C
18
18
18
18
18
D8
D8
70
00
00
ENDCHAR
STARTCHAR u12F8
ENCODING 4856
SWIDTH 666 0
DWIDTH 8 0
BBX 8 12 0 -4
BITMAP
78
CC
FC
CC
F8
60
30
78
CC
CC
CC
00
ENDCHAR
STARTCHAR u12AA
ENCODING 4778
SWIDTH 666 0
DWIDTH 8 0
BBX 8 12 0 -4
BITMAP
80
80
BC
66
66
66
66
66
66
66
67
00
ENDCHAR
STARTCHAR u1291
ENCODING 4753
SWIDTH 666 0
DWIDTH 8 0
BBX 8 12 0 -4
BITMAP
C0
C0
C0
F8
18
18
1E
1E
18
18
18
00
ENDCHAR
STARTCHAR u1306
ENCODING 4870
SWIDTH 666 0
DWIDTH 8 0
BBX 8 12 0 -4
BITMAP
FC
30
78
CC
CC
F8
60
30
7E
C6
C0
C0
ENDCHAR
STARTCHAR u003D
ENCODING 61
SWIDTH 666 0
DWIDTH 8 0
BBX 8 12 0 -4
BITMAP
00
00
00
00
FE
00
FE
00
00
00
00
00
ENDCHAR
STARTCHAR u0073
ENCODING 115
SWIDTH 666 0
DWIDTH 8 0
BBX 8 12 0 -4
BITMAP
00
00
00
00
7C
C6
70
1C
C6
7C
00
00
ENDCHAR
STARTCHAR u127A
ENCODING 4730
SWIDTH 666 0
DWIDTH 8 0
BBX 8 12 0 -4
BITMAP
FF
99
18
18
FF
99
18
18
18
1F
1F
00
ENDCHAR
STARTCHAR u121D
ENCODING 4637
SWIDTH 666 0
DWIDTH 8 0
BBX 8 12 0 -4
BITMAP
7C
AA
AA
AA
AA
6C
20
60
C0
80
80
00
ENDCHAR
STARTCHAR u1243
ENCODING 4675
SWIDTH 666 0
DWIDTH 8 0
BBX 8 12 0 -4
BITMAP
18
18
7E
DB
DB
7E
18
18
30
60
C0
00
ENDCHAR
STARTCHAR u0067
ENCODING 103
SWIDTH 666 0
DWIDTH 8 0
BBX 8 12 0 -4
BITMAP
00
00
00
00
76
CE
C6
C6
7E
06
C6
7C
ENDCHAR
STARTCHAR u1325
ENCODING 4901
SWIDTH 666 0
DWIDTH 8 0
BBX 8 12 0 -4
BITMAP
7C
92
92
92
92
08
08
08
08
08
08
00
ENDCHAR
STARTCHAR u1235
ENCODING 4661
SWIDTH 666 0
DWIDTH 8 0
BBX 8 12 0 -4
BITMAP
40
60
30
78
CC
CC
CC
CC
CC
CC
CC
00
ENDCHAR
STARTCHAR u123C
ENCODING 4668
SWIDTH 666 0
DWIDTH 8 0
BBX 8 12 0 -4
BITMAP
FC
30
30
78
CC
CC
CC
CC
CF
C9
CF
00
ENDCHAR
STARTCHAR u120C
ENCODING 4620
SWIDTH 666 0
DWIDTH 8 0
BBX 8 12 0 -4
BITMAP
0C
18
30
78
CC
CC
CC
CC
CF
CD
CF
00
ENDCHAR
STARTCHAR u0071
ENCODING 113
SWIDTH 666 0
DWIDTH 8 0
BBX 8 12 0 -4
BITMAP
00
00
00
00
76
CC
CC
CC
7C
0C
0C
1E
ENDCHAR
STARTCHAR u1260
ENCODING 4704
SWIDTH 666 0
DWIDTH 8 0
BBX 8 12 0 -4
BITMAP
00
3C
46
C6
C6
C6
C6
C6
C6
C6
C6
00
ENDCHAR
STARTCHAR u1225
ENCODING 4645
SWIDTH 666 0
DWIDTH 8 0
BBX 8 12 0 -4
BITMAP
6A
6A
6A
6A
6A
7C
E0
C0
C0
C0
C0
00
ENDCHAR
STARTCHAR u1336
ENCODING 4918
SWIDTH 666 0
DWIDTH 8 0
BBX 8 12 0 -4
BITMAP
10
10
38
6C
44
44
6C
38
38
6C
C0
C0
ENDCHAR
STARTCHAR u134F
ENCODING 4943
SWIDTH 666 0
DWIDTH 8 0
BBX 8 12 0 -4
BITMAP
60
60
60
C0
F8
CC
CC
7F
0C
3F
21
00
ENDCHAR
STARTCHAR u130E
ENCODING 4878
SWIDTH 666 0
DWIDTH 8 0
BBX 8 12 0 -4
BITMAP
30
30
F8
0C
0C
0C
0C
0C
0C
0C
0C
00
ENDCHAR
STARTCHAR u005B
ENCODING 91
SWIDTH 666 0
DWIDTH 8 0
BBX 8 12 0 -4
BITMAP
00
7C
60
60
60
60
60
60
60
7C
00
00
ENDCHAR
STARTCHAR u006B
ENCODING 107
SWIDTH 666 0
DWIDTH 8 0
BBX 8 12 0 -4
BITMAP
00
E0
60
60
66
6C
78
6C
66
E6
00
00
ENDCHAR
STARTCHAR u131B
ENCODING 4891
SWIDTH 666 0
DWIDTH 8 0
BBX 8 12 0 -4
BITMAP
FC
00
F8
0C
0C
0C
0C
18
30
60
C0
00
ENDCHAR
STARTCHAR u0057
ENCODING 87
SWIDTH 666 0
DWIDTH 8 0
BBX 8 12 0 -4
BITMAP
00
C6
C6
D6
D6
D6
FE
EE
C6
C6
00
00
ENDCHAR
STARTCHAR u125D
ENCODING 4701
SWIDTH 666 0
DWIDTH 8 0
BBX 8 12 0 -4
BITMAP
7E
18
18
7E
DB
DB
7F
19
19
18
18
00
ENDCHAR
STARTCHAR u004D
ENCODING 77
SWIDTH 666 0
DWIDTH 8 0
BBX 8 12 0 -4
BITMAP
00
C6
C6
EE
FE
D6
D6
D6
C6
C6
00
00
ENDCHAR
STARTCHAR u1300
ENCODING 4864
SWIDTH 666 0
DWIDTH 8 0
BBX 8 12 0 -4
BITMAP
FC
30
78
CC
CC
F8
60
30
78
CC
CC
00
ENDCHAR
STARTCHAR u12B0
ENCODING 4784
SWIDTH 666 0
DWIDTH 8 0
BBX 8 12 0 -4
BITMAP
80
87
BD
67
66
66
66
66
66
66
66
00
ENDCHAR
STARTCHAR u0027
ENCODING 39
SWIDTH 666 0
DWIDTH 8 0
BBX 8 12 0 -4
BITMAP
1C
1C
0C
18
00
00
00
00
00
00
00
00
ENDCHAR
STARTCHAR u12DE
ENCODING 4830
SWIDTH 666 0
DWIDTH 8 0
BBX 8 12 0 -4
BITMAP
C6
C6
C6
FE
C6
C6
C6
C0
C0
C0
C0
00
ENDCHAR
STARTCHAR u0040
ENCODING 64
SWIDTH 666 0
DWIDTH 8 0
BBX 8 12 0 -4
BITMAP
00
7C
C6
C6
DE
DE
DE
DC
C0
7E
00
00
ENDCHAR
STARTCHAR u0061
ENCODING 97
SWIDTH 666 0
DWIDTH 8 0
BBX 8 12 0 -4
BITMAP
00
00
00
00
78
0C
7C
CC
DC
76
00
00
ENDCHAR
STARTCHAR u0029
ENCODING 41
SWIDTH 666 0
DWIDTH 8 0
BBX 8 12 0 -4
BITMAP
00
30
18
0C
0C
0C
0C
0C
18
30
00
00
ENDCHAR
STARTCHAR u0034
ENCODING 52
SWIDTH 666 0
DWIDTH 8 0
BBX 8 12 0 -4
BITMAP
00
0C
1C
3C
6C
CC
FE
0C
0C
0C
00
00
ENDCHAR
STARTCHAR u12D4
ENCODING 4820
SWIDTH 666 0
DWIDTH 8 0
BBX 8 12 0 -4
BITMAP
78
CC
CC
CC
CC
7E
06
0C
0F
09
0F
00
ENDCHAR
STARTCHAR u002D
ENCODING 45
SWIDTH 666 0
DWIDTH 8 0
BBX 8 12 0 -4
BITMAP
00
00
00
00
00
FE
00
00
00
00
00
00
ENDCHAR
STARTCHAR u120F
ENCODING 4623
SWIDTH 666 0
DWIDTH 8 0
BBX 8 12 0 -4
BITMAP
0C
18
30
78
CC
C6
C6
06
06
1F
11
00
ENDCHAR
STARTCHAR u1222
ENCODING 4642
SWIDTH 666 0
DWIDTH 8 0
BBX 8 12 0 -4
BITMAP
D6
D6
D6
D6
D6
7E
06
06
0C
18
18
1E
ENDCHAR
STARTCHAR u12E5
ENCODING 4837
SWIDTH 666 0
DWIDTH 8 0
BBX 8 12 0 -4
BITMAP
E0
47
E6
66
7E
66
66
66
66
66
66
00
ENDCHAR
STARTCHAR u12D8
ENCODING 4824
SWIDTH 666 0
DWIDTH 8 0
BBX 8 12 0 -4
BITMAP
C6
C6
C6
FE
C6
C6
C6
C6
C6
C6
C6
00
ENDCHAR
STARTCHAR u126F
ENCODING 4719
SWIDTH 666 0
DWIDTH 8 0
BBX 8 12 0 -4
BITMAP
FE
00
3C
46
C6
C6
C6
06
06
06
1F
11
ENDCHAR
STARTCHAR u2191
ENCODING 8593
SWIDTH 666 0
DWIDTH 8 0
BBX 8 12 0 -4
BITMAP
00
18
3C
7E
18
18
18
18
18
18
00
00
ENDCHAR
STARTCHAR u1230
ENCODING 4656
SWIDTH 666 0
DWIDTH 8 0
BBX 8 12 0 -4
BITMAP
30
30
30
78
CC
CC
CC
CC
CC
CC
CC
00
ENDCHAR
STARTCHAR u0044
ENCODING 68
SWIDTH 666 0
DWIDTH 8 0
BBX 8 12 0 -4
BITMAP
00
F8
6C
66
66
66
66
66
6C
F8
00
00
ENDCHAR
STARTCHAR u1315
ENCODING 4885
SWIDTH 666 0
DWIDTH 8 0
BBX 8 12 0 -4
BITMAP
00
F2
1A
1E
1A
1A
18
18
18
18
18
00
ENDCHAR
STARTCHAR u12EA
ENCODING 4842
SWIDTH 666 0
DWIDTH 8 0
BBX 8 12 0 -4
BITMAP
38
6C
C4
C4
6C
78
36
3E
33
33
30
00
ENDCHAR
STARTCHAR u266B
ENCODING 9835
SWIDTH 666 0
DWIDTH 8 0
BBX 8 12 0 -4
BITMAP
FF
FF
FF
FF
FF
FF
00
00
00
00
00
00
ENDCHAR
STARTCHAR u0074
ENCODING 116
SWIDTH 666 0
DWIDTH 8 0
BBX 8 12 0 -4
BITMAP
00
30
30
30
FC
30
30
30
36
1C
00
00
ENDCHAR
STARTCHAR u1370
ENCODING 4976
SWIDTH 666 0
DWIDTH 8 0
BBX 8 12 0 -4
BITMAP
FF
C3
00
FF
DB
18
18
FF
C3
00
FF
C3
ENDCHAR
STARTCHAR u133D
ENCODING 4925
SWIDTH 666 0
DWIDTH 8 0
BBX 8 12 0 -4
BITMAP
38
6C
47
47
6C
38
38
6C
C6
C6
C6
00
ENDCHAR
STARTCHAR u1321
ENCODING 4897
SWIDTH 666 0
DWIDTH 8 0
BBX 8 12 0 -4
BITMAP
70
A8
A8
A8
A8
AF
A8
A8
A8
A8
A8
00
ENDCHAR
STARTCHAR u120B
ENCODING 4619
SWIDTH 666 0
DWIDTH 8 0
BBX 8 12 0 -4
BITMAP
0C
18
30
78
CC
C6
C6
C6
06
06
06
00
ENDCHAR
STARTCHAR u21A8
ENCODING 8616
SWIDTH 666 0
DWIDTH 8 0
BBX 8 12 0 -4
BITMAP
00
80
E0
F0
FC
FE
FC
F0
E0
80
00
00
ENDCHAR
STARTCHAR u127E
ENCODING 4734
SWIDTH 666 0
DWIDTH 8 0
BBX 8 12 0 -4
BITMAP
FF
A5
3C
18
FF
99
18
18
18
18
18
00
ENDCHAR
STARTCHAR u0064
ENCODING 100
SWIDTH 666 0
DWIDTH 8 0
BBX 8 12 0 -4
BITMAP
00
1C
0C
0C
7C
CC
CC
CC
CC
7E
00
00
ENDCHAR
STARTCHAR u1294
ENCODING 4756
SWIDTH 666 0
DWIDTH 8 0
BBX 8 12 0 -4
BITMAP
C0
C0
C0
F8
18
18
18
18
1E
12
1E
00
ENDCHAR
STARTCHAR u128C
ENCODING 4748
SWIDTH 666 0
DWIDTH 8 0
BBX 8 12 0 -4
BITMAP
30
F0
30
1C
0C
0C
0C
0F
0D
3F
40
00
ENDCHAR
STARTCHAR u0078
ENCODING 120
SWIDTH 666 0
DWIDTH 8 0
BBX 8 12 0 -4
BITMAP
00
00
00
00
C6
6C
38
38
6C
C6
00
00
ENDCHAR
STARTCHAR u0053
ENCODING 83
SWIDTH 666 0
DWIDTH 8 0
BBX 8 12 0 -4
BITMAP
00
7C
C6
C0
60
38
0C
06
C6
7C
00
00
ENDCHAR
STARTCHAR u1266
ENCODING 4710
SWIDTH 666 0
DWIDTH 8 0
BBX 8 12 0 -4
BITMAP
00
3C
46
C6
C6
C6
C6
C0
C0
C0
C0
00
ENDCHAR
STARTCHAR u2194
ENCODING 8596
SWIDTH 666 0
DWIDTH 8 0
BBX 8 12 0 -4
BITMAP
00
00
00
28
6C
FE
6C
28
00
00
00
00
ENDCHAR
STARTCHAR uFDFF
ENCODING 65023
SWIDTH 666 0
DWIDTH 8 0
BBX 8 12 0 -4
BITMAP
00
3E
63
63
06
0C
18
18
00
18
18
00
ENDCHAR
STARTCHAR u128B
ENCODING 4747
SWIDTH 666 0
DWIDTH 8 0
BBX 8 12 0 -4
BITMAP
30
F0
30
1C
0C
0C
0C
0C
0C
3F
21
00
ENDCHAR
STARTCHAR u12F4
ENCODING 4852
SWIDTH 666 0
DWIDTH 8 0
BBX 8 12 0 -4
BITMAP
78
CC
CC
CC
F8
60
30
7C
CF
C9
CF
00
ENDCHAR
STARTCHAR u12E1
ENCODING 4833
SWIDTH 666 0
DWIDTH 8 0
BBX 8 12 0 -4
BITMAP
E7
66
66
7E
66
67
67
66
66
66
66
00
ENDCHAR
STARTCHAR u12FB
ENCODING 4859
SWIDTH 666 0
DWIDTH 8 0
BBX 8 12 0 -4
BITMAP
78
CC
FC
CC
F8
60
30
7C
E6
06
06
00
ENDCHAR
STARTCHAR u1244
ENCODING 4676
SWIDTH 666 0
DWIDTH 8 0
BBX 8 12 0 -4
BITMAP
18
18
18
7E
DB
DB
7E
18
1E
12
1E
00
ENDCHAR
STARTCHAR u1226
ENCODING 4646
SWIDTH 666 0
DWIDTH 8 0
BBX 8 12 0 -4
BITMAP
D6
D6
D6
D6
7C
30
30
30
60
60
60
00
ENDCHAR
STARTCHAR u1258
ENCODING 4696
SWIDTH 666 0
DWIDTH 8 0
BBX 8 12 0 -4
BITMAP
7E
18
18
7E
DB
DB
7E
1F
1D
1F
18
00
ENDCHAR
STARTCHAR u1346
ENCODING 4934
SWIDTH 666 0
DWIDTH 8 0
BBX 8 12 0 -4
BITMAP
78
CC
FC
CC
CC
78
60
C0
C0
C0
C0
00
ENDCHAR
STARTCHAR u123E
ENCODING 4670
SWIDTH 666 0
DWIDTH 8 0
BBX 8 12 0 -4
BITMAP
FC
30
30
78
CC
CC
CC
CC
C0
C0
C0
00
ENDCHAR
STARTCHAR u121A
ENCODING 4634
SWIDTH 666 0
DWIDTH 8 0
BBX 8 12 0 -4
BITMAP
7C
AA
AA
AA
AA
6E
02
02
04
04
04
07
ENDCHAR
STARTCHAR u12F3
ENCODING 4851
SWIDTH 666 0
DWIDTH 8 0
BBX 8 12 0 -4
BITMAP
78
CC
CC
CC
F8
60
30
7C
E6
06
06
00
ENDCHAR
STARTCHAR u12CB
ENCODING 4811
SWIDTH 666 0
DWIDTH 8 0
BBX 8 12 0 -4
BITMAP
7E
DB
DB
DB
7E
18
18
18
18
18
18
00
ENDCHAR
STARTCHAR u1338
ENCODING 4920
SWIDTH 666 0
DWIDTH 8 0
BBX 8 12 0 -4
BITMAP
38
6C
44
44
6C
38
38
6C
C6
C6
C6
00
ENDCHAR
STARTCHAR u007A
ENCODING 122
SWIDTH 666 0
DWIDTH 8 0
BBX 8 12 0 -4
BITMAP
00
00
00
00
FE
8C
18
30
62
FE
00
00
ENDCHAR
STARTCHAR u1298
ENCODING 4760
SWIDTH 666 0
DWIDTH 8 0
BBX 8 12 0 -4
BITMAP
84
FC
30
30
3E
06
06
06
06
06
06
00
ENDCHAR
STARTCHAR u203C
ENCODING 8252
SWIDTH 666 0
DWIDTH 8 0
BBX 8 12 0 -4
BITMAP
00
00
06
0C
18
30
7E
00
7E
00
00
00
ENDCHAR
STARTCHAR u12F7
ENCODING 4855
SWIDTH 666 0
DWIDTH 8 0
BBX 8 12 0 -4
BITMAP
78
CC
CC
CC
F8
60
30
7C
C6
1F
11
00
ENDCHAR
STARTCHAR u132F
ENCODING 4911
SWIDTH 666 0
DWIDTH 8 0
BBX 8 12 0 -4
BITMAP
7C
92
92
92
92
DA
DA
02
02
1F
11
00
ENDCHAR
STARTCHAR u002A
ENCODING 42
SWIDTH 666 0
DWIDTH 8 0
BBX 8 12 0 -4
BITMAP
00
00
00
6C
38
FE
38
6C
00
00
00
00
ENDCHAR
STARTCHAR u002E
ENCODING 46
SWIDTH 666 0
DWIDTH 8 0
BBX 8 12 0 -4
BITMAP
00
00
00
00
00
00
00
00
18
18
00
00
ENDCHAR
STARTCHAR u1322
ENCODING 4898
SWIDTH 666 0
DWIDTH 8 0
BBX 8 12 0 -4
BITMAP
70
A8
A8
A8
A8
A8
A8
A8
A8
A8
AF
00
ENDCHAR
STARTCHAR u12C3
ENCODING 4803
SWIDTH 666 0
DWIDTH 8 0
BBX 8 12 0 -4
BITMAP
30
E0
9C
66
66
66
66
06
06
1F
11
00
ENDCHAR
STARTCHAR u1340
ENCODING 4928
SWIDTH 666 0
DWIDTH 8 0
BBX 8 12 0 -4
BITMAP
18
FC
CC
CC
FC
CC
CC
CC
CC
FC
60
00
ENDCHAR
STARTCHAR u1364
ENCODING 4964
SWIDTH 666 0
DWIDTH 8 0
BBX 8 12 0 -4
BITMAP
00
06
7E
60
18
18
00
18
18
06
7E
60
ENDCHAR
STARTCHAR u133C
ENCODING 4924
SWIDTH 666 0
DWIDTH 8 0
BBX 8 12 0 -4
BITMAP
38
6C
44
44
6C
38
38
6C
C7
C5
C7
00
ENDCHAR
STARTCHAR u0024
ENCODING 36
SWIDTH 666 0
DWIDTH 8 0
BBX 8 12 0 -4
BITMAP
00
10
7C
D6
70
38
1C
D6
7C
10
00
00
ENDCHAR
STARTCHAR u25B6
ENCODING 9654
SWIDTH 666 0
DWIDTH 8 0
BBX 8 12 0 -4
BITMAP
0F
0F
0F
0F
0F
0F
0F
0F
0F
0F
0F
0F
ENDCHAR
STARTCHAR u005E
ENCODING 94
SWIDTH 666 0
DWIDTH 8 0
BBX 8 12 0 -4
BITMAP
00
18
3C
66
00
00
00
00
00
00
00
00
ENDCHAR
STARTCHAR u12DB
ENCODING 4827
SWIDTH 666 0
DWIDTH 8 0
BBX 8 12 0 -4
BITMAP
C6
C6
C6
FE
C6
C6
C6
06
06
06
06
00
ENDCHAR
STARTCHAR u0033
ENCODING 51
SWIDTH 666 0
DWIDTH 8 0
BBX 8 12 0 -4
BITMAP
00
7C
C6
06
06
3C
06
06
C6
7C
00
00
ENDCHAR
STARTCHAR u1353
ENCODING 4947
SWIDTH 666 0
DWIDTH 8 0
BBX 8 12 0 -4
BITMAP
FE
92
10
10
10
10
10
10
10
10
E0
00
ENDCHAR
STARTCHAR u130C
ENCODING 4876
SWIDTH 666 0
DWIDTH 8 0
BBX 8 12 0 -4
BITMAP
00
F8
0C
0C
0C
0C
0C
0C
0F
09
0F
00
ENDCHAR
STARTCHAR u12D2
ENCODING 4818
SWIDTH 666 0
DWIDTH 8 0
BBX 8 12 0 -4
BITMAP
78
CC
CC
CC
CC
7E
06
06
0C
18
1F
00
ENDCHAR
STARTCHAR u12C2
ENCODING 4802
SWIDTH 666 0
DWIDTH 8 0
BBX 8 12 0 -4
BITMAP
30
E0
98
64
65
65
67
65
65
64
64
00
ENDCHAR
STARTCHAR u12E2
ENCODING 4834
SWIDTH 666 0
DWIDTH 8 0
BBX 8 12 0 -4
BITMAP
E7
66
66
7E
66
66
66
66
66
66
67
00
ENDCHAR
STARTCHAR u1275
ENCODING 4725
SWIDTH 666 0
DWIDTH 8 0
BBX 8 12 0 -4
BITMAP
60
60
38
18
18
FF
99
18
18
18
18
00
ENDCHAR
STARTCHAR u12BB
ENCODING 4795
SWIDTH 666 0
DWIDTH 8 0
BBX 8 12 0 -4
BITMAP
30
E0
9C
66
66
66
66
06
06
06
06
00
ENDCHAR
STARTCHAR u12AC
ENCODING 4780
SWIDTH 666 0
DWIDTH 8 0
BBX 8 12 0 -4
BITMAP
80
80
BC
66
66
66
66
66
6F
69
6F
00
ENDCHAR
STARTCHAR u120E
ENCODING 4622
SWIDTH 666 0
DWIDTH 8 0
BBX 8 12 0 -4
BITMAP
0C
18
30
78
CF
CD
CF
CC
CC
CC
CC
00
ENDCHAR
STARTCHAR u12E7
ENCODING 4839
SWIDTH 666 0
DWIDTH 8 0
BBX 8 12 0 -4
BITMAP
E7
66
66
7E
66
66
66
06
06
1F
11
00
ENDCHAR
STARTCHAR u129B
ENCODING 4763
SWIDTH 666 0
DWIDTH 8 0
BBX 8 12 0 -4
BITMAP
FE
10
7C
C6
C6
C0
78
18
18
18
18
00
ENDCHAR
STARTCHAR u125B
ENCODING 4699
SWIDTH 666 0
DWIDTH 8 0
BBX 8 12 0 -4
BITMAP
7E
18
7E
DB
DB
7E
18
18
18
7E
42
00
ENDCHAR
STARTCHAR u25CB
ENCODING 9675
SWIDTH 666 0
DWIDTH 8 0
BBX 8 12 0 -4
BITMAP
22
88
22
88
22
88
22
88
22
88
22
88
ENDCHAR
STARTCHAR u12F9
ENCODING 4857
SWIDTH 666 0
DWIDTH 8 0
BBX 8 12 0 -4
BITMAP
78
CC
FC
CC
F8
60
30
78
CF
CF
CC
00
ENDCHAR
STARTCHAR u12DC
ENCODING 4828
SWIDTH 666 0
DWIDTH 8 0
BBX 8 12 0 -4
BITMAP
CC
CC
CC
FC
CC
CC
CC
CC
CF
C9
CF
00
ENDCHAR
STARTCHAR u007D
ENCODING 125
SWIDTH 666 0
DWIDTH 8 0
BBX 8 12 0 -4
BITMAP
00
70
18
18
18
0E
18
18
18
70
00
00
ENDCHAR
STARTCHAR u002C
ENCODING 44
SWIDTH 666 0
DWIDTH 8 0
BBX 8 12 0 -4
BITMAP
00
00
00
00
00
00
00
0C
0C
0C
18
00
ENDCHAR
STARTCHAR u1285
ENCODING 4741
SWIDTH 666 0
DWIDTH 8 0
BBX 8 12 0 -4
BITMAP
18
78
D8
CE
06
06
06
06
06
06
06
00
ENDCHAR
STARTCHAR u1342
ENCODING 4930
SWIDTH 666 0
DWIDTH 8 0
BBX 8 12 0 -4
BITMAP
78
CC
CC
FC
CC
CC
7C
0C
0C
0C
0F
00
ENDCHAR
STARTCHAR u005F
ENCODING 95
SWIDTH 666 0
DWIDTH 8 0
BBX 8 12 0 -4
BITMAP
00
00
00
00
00
00
00
00
00
00
00
FF
ENDCHAR
STARTCHAR u1242
ENCODING 4674
SWIDTH 666 0
DWIDTH 8 0
BBX 8 12 0 -4
BITMAP
18
18
18
7E
DB
DB
7E
18
18
18
1E
00
ENDCHAR
STARTCHAR u1319
ENCODING 4889
SWIDTH 666 0
DWIDTH 8 0
BBX 8 12 0 -4
BITMAP
FC
00
F8
0C
0C
0F
0C
0C
0C
0C
0C
00
ENDCHAR
STARTCHAR u12DF
ENCODING 4831
SWIDTH 666 0
DWIDTH 8 0
BBX 8 12 0 -4
BITMAP
C6
C6
C6
FE
C6
C6
C6
06
06
1F
11
00
ENDCHAR
STARTCHAR u266C
ENCODING 9836
SWIDTH 666 0
DWIDTH 8 0
BBX 8 12 0 -4
BITMAP
FF
FF
FF
FF
FF
FF
00
00
00
00
00
00
ENDCHAR
STARTCHAR u120D
ENCODING 4621
SWIDTH 666 0
DWIDTH 8 0
BBX 8 12 0 -4
BITMAP
0C
18
30
78
CC
C6
C6
C6
F6
D6
F6
00
ENDCHAR
STARTCHAR u130A
ENCODING 4874
SWIDTH 666 0
DWIDTH 8 0
BBX 8 12 0 -4
BITMAP
00
F8
0C
0C
0C
0C
0C
0C
0C
0C
0F
00
ENDCHAR
STARTCHAR u006D
ENCODING 109
SWIDTH 666 0
DWIDTH 8 0
BBX 8 12 0 -4
BITMAP
00
00
00
00
6C
FE
D6
D6
C6
C6
00
00
ENDCHAR
STARTCHAR u126B
ENCODING 4715
SWIDTH 666 0
DWIDTH 8 0
BBX 8 12 0 -4
BITMAP
FE
00
3C
46
C6
C6
C6
C6
06
06
06
00
ENDCHAR
STARTCHAR u127B
ENCODING 4731
SWIDTH 666 0
DWIDTH 8 0
BBX 8 12 0 -4
BITMAP
FF
99
18
18
FF
99
18
18
30
60
C0
00
ENDCHAR
STARTCHAR u1304
ENCODING 4868
SWIDTH 666 0
DWIDTH 8 0
BBX 8 12 0 -4
BITMAP
FC
30
78
CC
CC
F8
60
30
7C
CF
C9
CF
ENDCHAR
STARTCHAR u1295
ENCODING 4757
SWIDTH 666 0
DWIDTH 8 0
BBX 8 12 0 -4
BITMAP
F8
98
18
1E
06
06
06
0C
18
18
18
00
ENDCHAR
STARTCHAR u125C
ENCODING 4700
SWIDTH 666 0
DWIDTH 8 0
BBX 8 12 0 -4
BITMAP
7E
18
18
7E
DB
DB
7E
18
1E
1A
7E
00
ENDCHAR
STARTCHAR u1368
ENCODING 4968
SWIDTH 666 0
DWIDTH 8 0
BBX 8 12 0 -4
BITMAP
18
18
C3
DB
18
DB
C3
18
18
00
00
00
ENDCHAR
STARTCHAR u121C
ENCODING 4636
SWIDTH 666 0
DWIDTH 8 0
BBX 8 12 0 -4
BITMAP
7C
AA
AA
AA
AA
6E
02
04
0F
09
0F
00
ENDCHAR
STARTCHAR u1270
ENCODING 4720
SWIDTH 666 0
DWIDTH 8 0
BBX 8 12 0 -4
BITMAP
18
18
18
18
FF
99
18
18
18
18
18
00
ENDCHAR
STARTCHAR u2666
ENCODING 9830
SWIDTH 666 0
DWIDTH 8 0
BBX 8 12 0 -4
BITMAP
00
00
10
38
7C
FE
7C
38
10
00
00
00
ENDCHAR
STARTCHAR u263C
ENCODING 9788
SWIDTH 666 0
DWIDTH 8 0
BBX 8 12 0 -4
BITMAP
F0
F0
F0
F0
F0
F0
F0
F0
F0
F0
F0
F0
ENDCHAR
STARTCHAR u1251
ENCODING 4689
SWIDTH 666 0
DWIDTH 8 0
BBX 8 12 0 -4
BITMAP
7E
18
18
7E
DB
DB
7E
18
1E
18
18
00
ENDCHAR
STARTCHAR u1354
ENCODING 4948
SWIDTH 666 0
DWIDTH 8 0
BBX 8 12 0 -4
BITMAP
FE
92
10
10
10
10
10
10
1C
12
1C
00
ENDCHAR
STARTCHAR u1252
ENCODING 4690
SWIDTH 666 0
DWIDTH 8 0
BBX 8 12 0 -4
BITMAP
7E
18
18
7E
DB
DB
7E
18
18
18
1E
00
ENDCHAR
STARTCHAR u1332
ENCODING 4914
SWIDTH 666 0
DWIDTH 8 0
BBX 8 12 0 -4
BITMAP
10
10
38
6C
44
44
6C
38
38
6C
C7
C7
ENDCHAR
STARTCHAR u004E
ENCODING 78
SWIDTH 666 0
DWIDTH 8 0
BBX 8 12 0 -4
BITMAP
00
C6
C6
E6
E6
F6
DE
CE
CE
C6
00
00
ENDCHAR
STARTCHAR u12AB
ENCODING 4779
SWIDTH 666 0
DWIDTH 8 0
BBX 8 12 0 -4
BITMAP
80
80
BC
66
66
66
66
66
06
06
06
00
ENDCHAR
STARTCHAR u1217
ENCODING 4631
SWIDTH 666 0
DWIDTH 8 0
BBX 8 12 0 -4
BITMAP
10
10
10
7C
D6
D6
D6
06
06
1F
11
00
ENDCHAR
STARTCHAR u1337
ENCODING 4919
SWIDTH 666 0
DWIDTH 8 0
BBX 8 12 0 -4
BITMAP
10
10
38
6C
44
6C
38
6C
66
06
1F
11
ENDCHAR
STARTCHAR u1355
ENCODING 4949
SWIDTH 666 0
DWIDTH 8 0
BBX 8 12 0 -4
BITMAP
FE
92
10
18
08
08
08
08
08
08
08
00
ENDCHAR
STARTCHAR u006A
ENCODING 106
SWIDTH 666 0
DWIDTH 8 0
BBX 8 12 0 -4
BITMAP
00
00
0C
0C
00
1C
0C
0C
0C
CC
CC
78
ENDCHAR
STARTCHAR u1280
ENCODING 4736
SWIDTH 666 0
DWIDTH 8 0
BBX 8 12 0 -4
BITMAP
18
F8
18
0E
06
06
06
06
06
06
06
00
ENDCHAR
STARTCHAR u1359
ENCODING 4953
SWIDTH 666 0
DWIDTH 8 0
BBX 8 12 0 -4
BITMAP
84
FC
30
30
30
60
C0
CC
C6
C6
7C
00
ENDCHAR
STARTCHAR u133A
ENCODING 4922
SWIDTH 666 0
DWIDTH 8 0
BBX 8 12 0 -4
BITMAP
38
6C
44
44
6C
38
38
6C
C6
C7
C7
00
ENDCHAR
STARTCHAR u12A4
ENCODING 4772
SWIDTH 666 0
DWIDTH 8 0
BBX 8 12 0 -4
BITMAP
C0
C0
60
30
78
CC
C6
C6
CF
C9
CF
00
ENDCHAR
STARTCHAR u12A2
ENCODING 4770
SWIDTH 666 0
DWIDTH 8 0
BBX 8 12 0 -4
BITMAP
C0
C0
70
30
78
CC
C6
C6
C6
C7
C7
00
ENDCHAR
STARTCHAR u0041
ENCODING 65
SWIDTH 666 0
DWIDTH 8 0
BBX 8 12 0 -4
BITMAP
00
38
6C
C6
C6
C6
FE
C6
C6
C6
00
00
ENDCHAR
STARTCHAR uFDFB
ENCODING 65019
SWIDTH 666 0
DWIDTH 8 0
BBX 8 12 0 -4
BITMAP
00
18
18
00
18
18
18
3C
3C
3C
18
00
ENDCHAR
STARTCHAR u12C0
ENCODING 4800
SWIDTH 666 0
DWIDTH 8 0
BBX 8 12 0 -4
BITMAP
30
E0
9F
65
67
66
66
66
66
66
66
00
ENDCHAR
STARTCHAR u2193
ENCODING 8595
SWIDTH 666 0
DWIDTH 8 0
BBX 8 12 0 -4
BITMAP
00
18
18
18
18
18
18
7E
3C
18
00
00
ENDCHAR
STARTCHAR u1372
ENCODING 4978
SWIDTH 666 0
DWIDTH 8 0
BBX 8 12 0 -4
BITMAP
7E
66
00
18
18
18
18
18
18
00
7E
66
ENDCHAR
STARTCHAR u1307
ENCODING 4871
SWIDTH 666 0
DWIDTH 8 0
BBX 8 12 0 -4
BITMAP
FC
30
78
CC
CC
F8
60
30
7C
C6
1F
11
ENDCHAR
STARTCHAR u12BC
ENCODING 4796
SWIDTH 666 0
DWIDTH 8 0
BBX 8 12 0 -4
BITMAP
30
E0
9C
66
66
66
66
66
67
65
67
00
ENDCHAR
STARTCHAR u124D
ENCODING 4685
SWIDTH 666 0
DWIDTH 8 0
BBX 8 12 0 -4
BITMAP
10
10
10
7C
D7
D7
7D
11
11
10
10
00
ENDCHAR
STARTCHAR u123D
ENCODING 4669
SWIDTH 666 0
DWIDTH 8 0
BBX 8 12 0 -4
BITMAP
FC
30
10
18
3C
66
66
66
66
66
66
00
ENDCHAR
STARTCHAR u0051
ENCODING 81
SWIDTH 666 0
DWIDTH 8 0
BBX 8 12 0 -4
BITMAP
00
7C
C6
C6
C6
C6
C6
C6
D6
7C
06
00
ENDCHAR
STARTCHAR u003C
ENCODING 60
SWIDTH 666 0
DWIDTH 8 0
BBX 8 12 0 -4
BITMAP
00
0C
18
30
60
C0
60
30
18
0C
00
00
ENDCHAR
STARTCHAR u122C
ENCODING 4652
SWIDTH 666 0
DWIDTH 8 0
BBX 8 12 0 -4
BITMAP
30
30
30
30
30
30
60
C0
DE
F2
7E
00
ENDCHAR
STARTCHAR u1324
ENCODING 4900
SWIDTH 666 0
DWIDTH 8 0
BBX 8 12 0 -4
BITMAP
70
A8
A8
A8
A8
A8
A8
A8
AE
A9
AE
00
ENDCHAR
STARTCHAR u12EF
ENCODING 4847
SWIDTH 666 0
DWIDTH 8 0
BBX 8 12 0 -4
BITMAP
FC
38
6C
C6
C6
66
3C
18
18
18
18
18
ENDCHAR
STARTCHAR u12CC
ENCODING 4812
SWIDTH 666 0
DWIDTH 8 0
BBX 8 12 0 -4
BITMAP
7E
DB
DB
DB
7E
18
18
18
1E
12
1E
00
ENDCHAR
STARTCHAR u0056
ENCODING 86
SWIDTH 666 0
DWIDTH 8 0
BBX 8 12 0 -4
BITMAP
00
C6
C6
C6
C6
C6
C6
6C
38
10
00
00
ENDCHAR
STARTCHAR u1233
ENCODING 4659
SWIDTH 666 0
DWIDTH 8 0
BBX 8 12 0 -4
BITMAP
30
30
30
78
CC
CC
CC
CC
0C
0C
0C
00
ENDCHAR
STARTCHAR u131A
ENCODING 4890
SWIDTH 666 0
DWIDTH 8 0
BBX 8 12 0 -4
BITMAP
FC
00
F8
0C
0C
0C
0C
0C
0C
0C
0F
00
ENDCHAR
STARTCHAR u12B3
ENCODING 4787
SWIDTH 666 0
DWIDTH 8 0
BBX 8 12 0 -4
BITMAP
80
80
BC
66
66
66
66
06
06
1F
11
00
ENDCHAR
STARTCHAR u1277
ENCODING 4727
SWIDTH 666 0
DWIDTH 8 0
BBX 8 12 0 -4
BITMAP
18
18
18
FF
99
18
18
18
18
7E
42
00
ENDCHAR
STARTCHAR u1283
ENCODING 4739
SWIDTH 666 0
DWIDTH 8 0
BBX 8 12 0 -4
BITMAP
18
F8
18
0E
06
06
06
06
0C
18
30
00
ENDCHAR
STARTCHAR u1314
ENCODING 4884
SWIDTH 666 0
DWIDTH 8 0
BBX 8 12 0 -4
BITMAP
F0
18
18
18
1E
12
1E
30
60
C0
C0
00
ENDCHAR
STARTCHAR u123A
ENCODING 4666
SWIDTH 666 0
DWIDTH 8 0
BBX 8 12 0 -4
BITMAP
FC
30
30
78
CC
CC
CC
CC
CC
CF
CF
00
ENDCHAR
STARTCHAR u1276
ENCODING 4726
SWIDTH 666 0
DWIDTH 8 0
BBX 8 12 0 -4
BITMAP
3C
24
3C
18
18
FF
99
18
18
18
18
00
ENDCHAR
STARTCHAR u1203
ENCODING 4611
SWIDTH 666 0
DWIDTH 8 0
BBX 8 12 0 -4
BITMAP
C6
C6
C6
C6
CE
7E
3E
0C
0C
0C
0C
0C
ENDCHAR
STARTCHAR u12D0
ENCODING 4816
SWIDTH 666 0
DWIDTH 8 0
BBX 8 12 0 -4
BITMAP
18
6C
CC
CC
CC
CC
CC
CC
CC
DC
60
00
ENDCHAR
STARTCHAR u127F
ENCODING 4735
SWIDTH 666 0
DWIDTH 8 0
BBX 8 12 0 -4
BITMAP
FF
99
18
FF
99
18
18
18
18
7E
42
00
ENDCHAR
STARTCHAR u134A
ENCODING 4938
SWIDTH 666 0
DWIDTH 8 0
BBX 8 12 0 -4
BITMAP
30
30
30
30
60
60
C0
F2
C9
C9
7E
00
ENDCHAR
STARTCHAR u122F
ENCODING 4655
SWIDTH 666 0
DWIDTH 8 0
BBX 8 12 0 -4
BITMAP
84
FC
30
30
30
30
60
C0
CE
CE
78
00
ENDCHAR
STARTCHAR u0052
ENCODING 82
SWIDTH 666 0
DWIDTH 8 0
BBX 8 12 0 -4
BITMAP
00
FC
66
66
66
7C
78
6C
66
E6
00
00
ENDCHAR
STARTCHAR u006E
ENCODING 110
SWIDTH 666 0
DWIDTH 8 0
BBX 8 12 0 -4
BITMAP
00
00
00
00
DC
66
66
66
66
66
00
00
ENDCHAR
STARTCHAR u12FD
ENCODING 4861
SWIDTH 666 0
DWIDTH 8 0
BBX 8 12 0 -4
BITMAP
78
CC
FF
CC
F8
60
30
78
CC
CC
CC
00
ENDCHAR
STARTCHAR u1320
ENCODING 4896
SWIDTH 666 0
DWIDTH 8 0
BBX 8 12 0 -4
BITMAP
7C
92
92
92
92
92
92
92
92
92
92
00
ENDCHAR
STARTCHAR u25C4
ENCODING 9668
SWIDTH 666 0
DWIDTH 8 0
BBX 8 12 0 -4
BITMAP
88
C8
A8
98
88
00
20
20
20
20
3E
00
ENDCHAR
STARTCHAR u2663
ENCODING 9827
SWIDTH 666 0
DWIDTH 8 0
BBX 8 12 0 -4
BITMAP
88
88
F8
88
88
00
3E
08
08
08
08
00
ENDCHAR
STARTCHAR u1200
ENCODING 4608
SWIDTH 666 0
DWIDTH 8 0
BBX 8 12 0 -4
BITMAP
C6
C6
C6
C6
C6
C6
C6
CE
CC
FC
70
00
ENDCHAR
STARTCHAR u121B
ENCODING 4635
SWIDTH 666 0
DWIDTH 8 0
BBX 8 12 0 -4
BITMAP
7C
AA
AA
AA
AA
6E
02
02
02
02
02
00
ENDCHAR
STARTCHAR u133F
ENCODING 4927
SWIDTH 666 0
DWIDTH 8 0
BBX 8 12 0 -4
BITMAP
38
6C
44
44
6C
38
7C
C6
06
1F
11
00
ENDCHAR
STARTCHAR u12A7
ENCODING 4775
SWIDTH 666 0
DWIDTH 8 0
BBX 8 12 0 -4
BITMAP
84
FC
30
38
18
3C
66
63
63
63
63
00
ENDCHAR
STARTCHAR u129C
ENCODING 4764
SWIDTH 666 0
DWIDTH 8 0
BBX 8 12 0 -4
BITMAP
84
FC
30
30
3C
0C
0C
0C
0F
09
0F
00
ENDCHAR
STARTCHAR u1271
ENCODING 4721
SWIDTH 666 0
DWIDTH 8 0
BBX 8 12 0 -4
BITMAP
18
18
18
FF
99
18
18
1E
1E
18
18
00
ENDCHAR
STARTCHAR u1358
ENCODING 4952
SWIDTH 666 0
DWIDTH 8 0
BBX 8 12 0 -4
BITMAP
FE
10
7C
AA
AA
AA
AA
6E
02
02
02
02
ENDCHAR
STARTCHAR u132E
ENCODING 4910
SWIDTH 666 0
DWIDTH 8 0
BBX 8 12 0 -4
BITMAP
7C
92
92
92
9B
9B
80
80
80
C0
C0
00
ENDCHAR
STARTCHAR u136F
ENCODING 4975
SWIDTH 666 0
DWIDTH 8 0
BBX 8 12 0 -4
BITMAP
FF
C3
7C
6C
0C
18
18
36
3E
00
FF
C3
ENDCHAR
STARTCHAR u1264
ENCODING 4708
SWIDTH 666 0
DWIDTH 8 0
BBX 8 12 0 -4
BITMAP
00
38
4C
CC
CC
CC
CC
CC
CF
C9
CF
00
ENDCHAR
STARTCHAR u0045
ENCODING 69
SWIDTH 666 0
DWIDTH 8 0
BBX 8 12 0 -4
BITMAP
00
FE
66
60
60
7C
60
60
66
FE
00
00
ENDCHAR
STARTCHAR u0070
ENCODING 112
SWIDTH 666 0
DWIDTH 8 0
BBX 8 12 0 -4
BITMAP
00
00
00
00
DC
66
66
66
7C
60
60
F0
ENDCHAR
STARTCHAR u1328
ENCODING 4904
SWIDTH 666 0
DWIDTH 8 0
BBX 8 12 0 -4
BITMAP
7C
92
92
92
92
92
92
92
92
DB
DB
00
ENDCHAR
STARTCHAR u1205
ENCODING 4613
SWIDTH 666 0
DWIDTH 8 0
BBX 8 12 0 -4
BITMAP
C6
C6
C6
C6
E6
66
66
66
66
7E
38
00
ENDCHAR
STARTCHAR u2642
ENCODING 9794
SWIDTH 666 0
DWIDTH 8 0
BBX 8 12 0 -4
BITMAP
EE
BB
EE
BB
EE
BB
EE
BB
EE
BB
EE
BB
ENDCHAR
STARTCHAR u132B
ENCODING 4907
SWIDTH 666 0
DWIDTH 8 0
BBX 8 12 0 -4
BITMAP
7C
92
92
92
92
DA
DA
02
02
03
03
00
ENDCHAR
STARTCHAR u12EE
ENCODING 4846
SWIDTH 666 0
DWIDTH 8 0
BBX 8 12 0 -4
BITMAP
38
6C
C7
C7
64
3C
18
18
18
18
18
00
ENDCHAR
STARTCHAR u1211
ENCODING 4625
SWIDTH 666 0
DWIDTH 8 0
BBX 8 12 0 -4
BITMAP
20
20
20
20
70
A8
AE
AE
A8
A8
A8
00
ENDCHAR
STARTCHAR u1292
ENCODING 4754
SWIDTH 666 0
DWIDTH 8 0
BBX 8 12 0 -4
BITMAP
C0
C0
C0
F8
18
18
18
18
18
1E
1E
00
ENDCHAR
STARTCHAR u12E3
ENCODING 4835
SWIDTH 666 0
DWIDTH 8 0
BBX 8 12 0 -4
BITMAP
E7
66
66
7E
66
66
66
06
06
06
06
00
ENDCHAR
STARTCHAR u004F
ENCODING 79
SWIDTH 666 0
DWIDTH 8 0
BBX 8 12 0 -4
BITMAP
00
7C
C6
C6
C6
C6
C6
C6
C6
7C
00
00
ENDCHAR
STARTCHAR u0079
ENCODING 121
SWIDTH 666 0
DWIDTH 8 0
BBX 8 12 0 -4
BITMAP
00
00
00
00
C6
C6
C6
CE
76
06
C6
7C
ENDCHAR
STARTCHAR u12C4
ENCODING 4804
SWIDTH 666 0
DWIDTH 8 0
BBX 8 12 0 -4
BITMAP
30
E0
9C
7C
66
66
66
0F
09
3F
60
00
ENDCHAR
STARTCHAR u124A
ENCODING 4682
SWIDTH 666 0
DWIDTH 8 0
BBX 8 12 0 -4
BITMAP
10
11
11
7D
D7
D7
7C
10
10
10
10
00
ENDCHAR
STARTCHAR u1216
ENCODING 4630
SWIDTH 666 0
DWIDTH 8 0
BBX 8 12 0 -4
BITMAP
10
10
10
10
7C
D6
D6
D6
C0
C0
C0
00
ENDCHAR
STARTCHAR u25B2
ENCODING 9650
SWIDTH 666 0
DWIDTH 8 0
BBX 8 12 0 -4
BITMAP
00
06
06
36
66
FE
60
30
00
00
00
00
ENDCHAR
STARTCHAR u007E
ENCODING 126
SWIDTH 666 0
DWIDTH 8 0
BBX 8 12 0 -4
BITMAP
00
76
DC
00
00
00
00
00
00
00
00
00
ENDCHAR
STARTCHAR u128A
ENCODING 4746
SWIDTH 666 0
DWIDTH 8 0
BBX 8 12 0 -4
BITMAP
30
F0
30
1C
0D
0D
0F
0D
0D
0C
0C
00
ENDCHAR
STARTCHAR u12D3
ENCODING 4819
SWIDTH 666 0
DWIDTH 8 0
BBX 8 12 0 -4
BITMAP
78
CC
CC
CC
CC
7E
06
06
0C
18
18
00
ENDCHAR
STARTCHAR u1241
ENCODING 4673
SWIDTH 666 0
DWIDTH 8 0
BBX 8 12 0 -4
BITMAP
18
18
18
7E
DB
DB
7E
18
1E
18
18
00
ENDCHAR
STARTCHAR u137A
ENCODING 4986
SWIDTH 666 0
DWIDTH 8 0
BBX 8 12 0 -4
BITMAP
FF
C3
78
6C
08
1C
06
0C
18
18
FF
C3
ENDCHAR
STARTCHAR u12EC
ENCODING 4844
SWIDTH 666 0
DWIDTH 8 0
BBX 8 12 0 -4
BITMAP
70
D8
8C
8C
D8
70
3F
39
37
30
30
00
ENDCHAR
STARTCHAR u12B8
ENCODING 4792
SWIDTH 666 0
DWIDTH 8 0
BBX 8 12 0 -4
BITMAP
30
E0
9C
66
66
66
66
66
66
66
66
00
ENDCHAR
STARTCHAR u1212
ENCODING 4626
SWIDTH 666 0
DWIDTH 8 0
BBX 8 12 0 -4
BITMAP
10
10
10
10
7C
D6
D6
D6
D6
D4
D7
00
ENDCHAR
STARTCHAR u1234
ENCODING 4660
SWIDTH 666 0
DWIDTH 8 0
BBX 8 12 0 -4
BITMAP
30
30
30
78
CC
CC
CC
CC
CF
C9
CF
00
ENDCHAR
STARTCHAR u1229
ENCODING 4649
SWIDTH 666 0
DWIDTH 8 0
BBX 8 12 0 -4
BITMAP
30
30
30
30
60
C0
C0
7E
18
18
18
00
ENDCHAR
STARTCHAR u1333
ENCODING 4915
SWIDTH 666 0
DWIDTH 8 0
BBX 8 12 0 -4
BITMAP
10
10
38
6C
44
44
6C
38
38
6C
06
06
ENDCHAR
STARTCHAR u25AC
ENCODING 9644
SWIDTH 666 0
DWIDTH 8 0
BBX 8 12 0 -4
BITMAP
00
02
0E
3E
7E
FE
7E
3E
0E
02
00
00
ENDCHAR
STARTCHAR u12EB
ENCODING 4843
SWIDTH 666 0
DWIDTH 8 0
BBX 8 12 0 -4
BITMAP
38
6C
C6
C6
66
3C
18
0C
18
30
60
00
ENDCHAR
STARTCHAR u0075
ENCODING 117
SWIDTH 666 0
DWIDTH 8 0
BBX 8 12 0 -4
BITMAP
00
00
00
00
CC
CC
CC
CC
CC
76
00
00
ENDCHAR
STARTCHAR u1309
ENCODING 4873
SWIDTH 666 0
DWIDTH 8 0
BBX 8 12 0 -4
BITMAP
00
F8
0C
0C
0C
0F
0C
0C
0C
0C
0C
00
ENDCHAR
STARTCHAR u0021
ENCODING 33
SWIDTH 666 0
DWIDTH 8 0
BBX 8 12 0 -4
BITMAP
00
18
3C
3C
3C
18
18
00
18
18
00
00
ENDCHAR
STARTCHAR u125A
ENCODING 4698
SWIDTH 666 0
DWIDTH 8 0
BBX 8 12 0 -4
BITMAP
7E
19
19
7F
DB
DB
7E
18
18
18
18
00
ENDCHAR
STARTCHAR u126E
ENCODING 4718
SWIDTH 666 0
DWIDTH 8 0
BBX 8 12 0 -4
BITMAP
FE
00
3C
46
C6
C6
C6
C6
C0
C0
C0
00
ENDCHAR
STARTCHAR u003F
ENCODING 63
SWIDTH 666 0
DWIDTH 8 0
BBX 8 12 0 -4
BITMAP
00
7C
C6
C6
0C
18
18
00
18
18
00
00
ENDCHAR
STARTCHAR u12A3
ENCODING 4771
SWIDTH 666 0
DWIDTH 8 0
BBX 8 12 0 -4
BITMAP
C0
C0
70
30
78
CC
C6
C6
06
06
06
00
ENDCHAR
STARTCHAR u121F
ENCODING 4639
SWIDTH 666 0
DWIDTH 8 0
BBX 8 12 0 -4
BITMAP
7E
A5
A5
A5
43
02
04
04
04
1F
11
00
ENDCHAR
STARTCHAR u12E8
ENCODING 4840
SWIDTH 666 0
DWIDTH 8 0
BBX 8 12 0 -4
BITMAP
38
6C
C6
C6
66
3C
18
18
18
18
18
00
ENDCHAR
STARTCHAR u0050
ENCODING 80
SWIDTH 666 0
DWIDTH 8 0
BBX 8 12 0 -4
BITMAP
00
FC
66
66
66
7C
60
60
60
F0
00
00
ENDCHAR
STARTCHAR u133B
ENCODING 4923
SWIDTH 666 0
DWIDTH 8 0
BBX 8 12 0 -4
BITMAP
38
6C
44
44
6C
38
38
6C
C6
06
06
00
ENDCHAR
STARTCHAR u12DD
ENCODING 4829
SWIDTH 666 0
DWIDTH 8 0
BBX 8 12 0 -4
BITMAP
F3
F3
33
3F
33
33
33
33
33
33
33
00
ENDCHAR
STARTCHAR u1227
ENCODING 4647
SWIDTH 666 0
DWIDTH 8 0
BBX 8 12 0 -4
BITMAP
D6
D6
D6
D6
D6
7E
06
06
06
06
1F
11
ENDCHAR
STARTCHAR u1334
ENCODING 4916
SWIDTH 666 0
DWIDTH 8 0
BBX 8 12 0 -4
BITMAP
10
10
38
6C
44
44
6C
38
38
6F
C5
C7
ENDCHAR
STARTCHAR u0063
ENCODING 99
SWIDTH 666 0
DWIDTH 8 0
BBX 8 12 0 -4
BITMAP
00
00
00
00
7C
C6
C0
C0
C6
7C
00
00
ENDCHAR
STARTCHAR u130D
ENCODING 4877
SWIDTH 666 0
DWIDTH 8 0
BBX 8 12 0 -4
BITMAP
00
FC
96
E6
06
06
06
06
06
06
06
00
ENDCHAR
STARTCHAR u129F
ENCODING 4767
SWIDTH 666 0
DWIDTH 8 0
BBX 8 12 0 -4
BITMAP
FE
10
7C
C6
C6
C0
78
18
18
18
7E
42
ENDCHAR
STARTCHAR u0048
ENCODING 72
SWIDTH 666 0
DWIDTH 8 0
BBX 8 12 0 -4
BITMAP
00
C6
C6
C6
C6
FE
C6
C6
C6
C6
00
00
ENDCHAR
STARTCHAR u25C0
ENCODING 9664
SWIDTH 666 0
DWIDTH 8 0
BBX 8 12 0 -4
BITMAP
88
C8
A8
98
88
00
20
20
20
20
3E
00
ENDCHAR
STARTCHAR u2022
ENCODING 8226
SWIDTH 666 0
DWIDTH 8 0
BBX 8 12 0 -4
BITMAP
78
80
80
80
78
00
3C
22
3E
24
22
00
ENDCHAR
STARTCHAR u1351
ENCODING 4945
SWIDTH 666 0
DWIDTH 8 0
BBX 8 12 0 -4
BITMAP
FE
92
10
10
10
10
1E
10
10
10
10
00
ENDCHAR
STARTCHAR u1250
ENCODING 4688
SWIDTH 666 0
DWIDTH 8 0
BBX 8 12 0 -4
BITMAP
7E
18
18
7E
DB
DB
7E
18
18
18
18
00
ENDCHAR
STARTCHAR u1360
ENCODING 4960
SWIDTH 666 0
DWIDTH 8 0
BBX 8 12 0 -4
BITMAP
00
00
00
00
00
00
00
00
00
00
00
00
ENDCHAR
STARTCHAR u1293
ENCODING 4755
SWIDTH 666 0
DWIDTH 8 0
BBX 8 12 0 -4
BITMAP
7C
C6
C6
C0
78
18
18
18
18
18
18
00
ENDCHAR
STARTCHAR u131C
ENCODING 4892
SWIDTH 666 0
DWIDTH 8 0
BBX 8 12 0 -4
BITMAP
FC
00
F8
0C
0C
0C
0C
0C
0F
09
0F
00
ENDCHAR
STARTCHAR u1323
ENCODING 4899
SWIDTH 666 0
DWIDTH 8 0
BBX 8 12 0 -4
BITMAP
7C
92
92
92
92
92
02
02
02
02
02
00
ENDCHAR
STARTCHAR u00B6
ENCODING 182
SWIDTH 666 0
DWIDTH 8 0
BBX 8 12 0 -4
BITMAP
00
00
60
30
18
0C
7E
00
7E
00
00
00
ENDCHAR
STARTCHAR u1284
ENCODING 4740
SWIDTH 666 0
DWIDTH 8 0
BBX 8 12 0 -4
BITMAP
18
F8
18
0E
06
06
06
06
0F
09
0F
00
ENDCHAR
STARTCHAR u1343
ENCODING 4931
SWIDTH 666 0
DWIDTH 8 0
BBX 8 12 0 -4
BITMAP
78
CC
CC
FC
CC
CC
7C
0C
0C
0C
0C
00
ENDCHAR
STARTCHAR u006C
ENCODING 108
SWIDTH 666 0
DWIDTH 8 0
BBX 8 12 0 -4
BITMAP
00
38
18
18
18
18
18
18
18
3C
00
00
ENDCHAR
STARTCHAR u005C
ENCODING 92
SWIDTH 666 0
DWIDTH 8 0
BBX 8 12 0 -4
BITMAP
00
00
00
C0
60
30
18
0C
06
00
00
00
ENDCHAR
STARTCHAR u1318
ENCODING 4888
SWIDTH 666 0
DWIDTH 8 0
BBX 8 12 0 -4
BITMAP
FC
00
F8
0C
0C
0C
0C
0C
0C
0C
0C
00
ENDCHAR
STARTCHAR u1223
ENCODING 4643
SWIDTH 666 0
DWIDTH 8 0
BBX 8 12 0 -4
BITMAP
D6
D6
D6
D6
D6
7E
06
06
06
06
06
00
ENDCHAR
STARTCHAR u134C
ENCODING 4940
SWIDTH 666 0
DWIDTH 8 0
BBX 8 12 0 -4
BITMAP
60
60
60
40
C0
F0
C8
C8
7F
09
0F
00
ENDCHAR
STARTCHAR u12F6
ENCODING 4854
SWIDTH 666 0
DWIDTH 8 0
BBX 8 12 0 -4
BITMAP
78
CC
CC
CC
F8
60
30
7E
C6
C0
C0
00
ENDCHAR
STARTCHAR u134D
ENCODING 4941
SWIDTH 666 0
DWIDTH 8 0
BBX 8 12 0 -4
BITMAP
7C
FC
C0
C0
C0
F8
CC
CC
7F
0C
0C
00
ENDCHAR
STARTCHAR u1310
ENCODING 4880
SWIDTH 666 0
DWIDTH 8 0
BBX 8 12 0 -4
BITMAP
00
F0
18
18
1F
19
1F
18
18
18
18
00
ENDCHAR
STARTCHAR u129A
ENCODING 4762
SWIDTH 666 0
DWIDTH 8 0
BBX 8 12 0 -4
BITMAP
84
FC
30
30
3C
0C
0C
0C
0C
0F
0F
00
ENDCHAR
STARTCHAR uFDFE
ENCODING 65022
SWIDTH 666 0
DWIDTH 8 0
BBX 8 12 0 -4
BITMAP
00
00
D8
6C
36
1B
36
6C
D8
00
00
00
ENDCHAR
STARTCHAR u1245
ENCODING 4677
SWIDTH 666 0
DWIDTH 8 0
BBX 8 12 0 -4
BITMAP
60
60
38
18
7E
DB
DB
7E
18
18
18
00
ENDCHAR
STARTCHAR u00A7
ENCODING 167
SWIDTH 666 0
DWIDTH 8 0
BBX 8 12 0 -4
BITMAP
00
00
06
0C
FE
38
FE
60
C0
00
00
00
ENDCHAR
STARTCHAR u12A1
ENCODING 4769
SWIDTH 666 0
DWIDTH 8 0
BBX 8 12 0 -4
BITMAP
C0
C0
70
30
78
CC
C7
C7
C6
C6
C6
00
ENDCHAR
STARTCHAR u0030
ENCODING 48
SWIDTH 666 0
DWIDTH 8 0
BBX 8 12 0 -4
BITMAP
00
7C
C6
C6
C6
D6
C6
C6
C6
7C
00
00
ENDCHAR
STARTCHAR u12A5
ENCODING 4773
SWIDTH 666 0
DWIDTH 8 0
BBX 8 12 0 -4
BITMAP
E0
70
38
30
78
CC
C6
C6
C6
C6
C6
00
ENDCHAR
STARTCHAR u1253
ENCODING 4691
SWIDTH 666 0
DWIDTH 8 0
BBX 8 12 0 -4
BITMAP
7E
18
18
7E
DB
DB
7E
18
18
30
60
00
ENDCHAR
STARTCHAR u1367
ENCODING 4967
SWIDTH 666 0
DWIDTH 8 0
BBX 8 12 0 -4
BITMAP
00
18
18
00
18
18
00
18
18
00
00
00
ENDCHAR
STARTCHAR u1263
ENCODING 4707
SWIDTH 666 0
DWIDTH 8 0
BBX 8 12 0 -4
BITMAP
00
3C
46
C6
C6
C6
C6
06
06
06
06
00
ENDCHAR
STARTCHAR u12E0
ENCODING 4832
SWIDTH 666 0
DWIDTH 8 0
BBX 8 12 0 -4
BITMAP
E7
66
66
7E
66
66
66
66
66
66
66
00
ENDCHAR
STARTCHAR uFFFD
ENCODING 65533
SWIDTH 666 0
DWIDTH 8 0
BBX 8 12 0 -4
BITMAP
7E
C3
99
99
F3
E7
E7
FF
E7
E7
7E
00
ENDCHAR
STARTCHAR u1373
ENCODING 4979
SWIDTH 666 0
DWIDTH 8 0
BBX 8 12 0 -4
BITMAP
FF
C3
00
7E
5A
30
3C
66
66
00
FF
C3
ENDCHAR
STARTCHAR u135A
ENCODING 4954
SWIDTH 666 0
DWIDTH 8 0
BBX 8 12 0 -4
BITMAP
84
FC
30
30
30
60
C0
F2
C9
C9
7E
00
ENDCHAR
STARTCHAR u007B
ENCODING 123
SWIDTH 666 0
DWIDTH 8 0
BBX 8 12 0 -4
BITMAP
00
0E
18
18
18
70
18
18
18
0E
00
00
ENDCHAR
STARTCHAR u1361
ENCODING 4961
SWIDTH 666 0
DWIDTH 8 0
BBX 8 12 0 -4
BITMAP
00
00
00
00
18
18
00
18
18
00
00
00
ENDCHAR
STARTCHAR u0032
ENCODING 50
SWIDTH 666 0
DWIDTH 8 0
BBX 8 12 0 -4
BITMAP
00
7C
C6
C6
0C
18
30
60
C6
FE
00
00
ENDCHAR
STARTCHAR u1327
ENCODING 4903
SWIDTH 666 0
DWIDTH 8 0
BBX 8 12 0 -4
BITMAP
70
A8
A8
A8
A8
A8
A8
08
08
3E
22
00
ENDCHAR
STARTCHAR u136B
ENCODING 4971
SWIDTH 666 0
DWIDTH 8 0
BBX 8 12 0 -4
BITMAP
FE
C6
00
7C
6C
60
60
60
70
00
FE
C6
ENDCHAR
STARTCHAR u2302
ENCODING 8962
SWIDTH 666 0
DWIDTH 8 0
BBX 8 12 0 -4
BITMAP
66
66
00
66
66
66
3C
18
18
3C
00
00
ENDCHAR
STARTCHAR u1208
ENCODING 4616
SWIDTH 666 0
DWIDTH 8 0
BBX 8 12 0 -4
BITMAP
0C
18
30
78
CC
C6
C6
C6
C6
C6
C6
00
ENDCHAR
STARTCHAR u1256
ENCODING 4694
SWIDTH 666 0
DWIDTH 8 0
BBX 8 12 0 -4
BITMAP
FF
24
3C
18
7E
DB
DB
7E
18
18
18
00
ENDCHAR
STARTCHAR u12BE
ENCODING 4798
SWIDTH 666 0
DWIDTH 8 0
BBX 8 12 0 -4
BITMAP
30
E0
9C
66
66
66
66
66
60
60
60
00
ENDCHAR
STARTCHAR u0038
ENCODING 56
SWIDTH 666 0
DWIDTH 8 0
BBX 8 12 0 -4
BITMAP
00
7C
C6
C6
C6
7C
C6
C6
C6
7C
00
00
ENDCHAR
STARTCHAR u0042
ENCODING 66
SWIDTH 666 0
DWIDTH 8 0
BBX 8 12 0 -4
BITMAP
00
FC
66
66
66
7C
66
66
66
FC
00
00
ENDCHAR
STARTCHAR u1269
ENCODING 4713
SWIDTH 666 0
DWIDTH 8 0
BBX 8 12 0 -4
BITMAP
FC
00
38
4C
CC
CC
CF
CF
CC
CC
CC
00
ENDCHAR
STARTCHAR u0036
ENCODING 54
SWIDTH 666 0
DWIDTH 8 0
BBX 8 12 0 -4
BITMAP
00
7C
C6
C0
C0
FC
C6
C6
C6
7C
00
00
ENDCHAR
STARTCHAR u12C8
ENCODING 4808
SWIDTH 666 0
DWIDTH 8 0
BBX 8 12 0 -4
BITMAP
00
00
7C
D6
D6
D6
D6
D6
D6
7C
00
00
ENDCHAR
STARTCHAR u136A
ENCODING 4970
SWIDTH 666 0
DWIDTH 8 0
BBX 8 12 0 -4
BITMAP
FF
C3
3C
76
E6
FC
E0
7C
76
3C
FF
C3
ENDCHAR
STARTCHAR u12B2
ENCODING 4786
SWIDTH 666 0
DWIDTH 8 0
BBX 8 12 0 -4
BITMAP
80
80
B8
64
64
65
65
67
65
65
64
00
ENDCHAR
STARTCHAR u0046
ENCODING 70
SWIDTH 666 0
DWIDTH 8 0
BBX 8 12 0 -4
BITMAP
00
FE
66
60
60
7C
60
60
60
F0
00
00
ENDCHAR
STARTCHAR u1218
ENCODING 4632
SWIDTH 666 0
DWIDTH 8 0
BBX 8 12 0 -4
BITMAP
00
00
7C
AA
AA
AA
AA
AA
AA
6C
00
00
ENDCHAR
STARTCHAR u0058
ENCODING 88
SWIDTH 666 0
DWIDTH 8 0
BBX 8 12 0 -4
BITMAP
00
C6
C6
6C
38
38
38
6C
C6
C6
00
00
ENDCHAR
STARTCHAR u122A
ENCODING 4650
SWIDTH 666 0
DWIDTH 8 0
BBX 8 12 0 -4
BITMAP
30
30
30
30
60
60
C0
CC
C6
C6
7C
00
ENDCHAR
STARTCHAR u1281
ENCODING 4737
SWIDTH 666 0
DWIDTH 8 0
BBX 8 12 0 -4
BITMAP
18
F8
18
0E
06
06
07
06
06
06
06
00
ENDCHAR
STARTCHAR u12D9
ENCODING 4825
SWIDTH 666 0
DWIDTH 8 0
BBX 8 12 0 -4
BITMAP
CC
CC
CC
FC
CC
CC
CF
CF
CC
CC
CC
00
ENDCHAR
STARTCHAR u134B
ENCODING 4939
SWIDTH 666 0
DWIDTH 8 0
BBX 8 12 0 -4
BITMAP
60
60
60
60
C0
F0
CC
CC
7F
0C
0C
00
ENDCHAR
STARTCHAR u12BD
ENCODING 4797
SWIDTH 666 0
DWIDTH 8 0
BBX 8 12 0 -4
BITMAP
30
E0
9E
33
33
33
1B
1B
1B
1B
1B
00
ENDCHAR
STARTCHAR u1313
ENCODING 4883
SWIDTH 666 0
DWIDTH 8 0
BBX 8 12 0 -4
BITMAP
F0
D8
18
7C
66
06
06
06
06
06
06
00
ENDCHAR
STARTCHAR u1273
ENCODING 4723
SWIDTH 666 0
DWIDTH 8 0
BBX 8 12 0 -4
BITMAP
18
18
18
FF
99
18
18
18
30
60
C0
00
ENDCHAR
STARTCHAR u12C5
ENCODING 4805
SWIDTH 666 0
DWIDTH 8 0
BBX 8 12 0 -4
BITMAP
30
E2
9A
66
65
65
64
64
64
64
64
00
ENDCHAR
STARTCHAR u004B
ENCODING 75
SWIDTH 666 0
DWIDTH 8 0
BBX 8 12 0 -4
BITMAP
00
C6
CC
D8
F0
F0
D8
CC
C6
C6
00
00
ENDCHAR
STARTCHAR u0028
ENCODING 40
SWIDTH 666 0
DWIDTH 8 0
BBX 8 12 0 -4
BITMAP
00
0C
18
30
30
30
30
30
18
0C
00
00
ENDCHAR
STARTCHAR u1202
ENCODING 4610
SWIDTH 666 0
DWIDTH 8 0
BBX 8 12 0 -4
BITMAP
CC
CC
CC
CC
CC
7C
3C
0C
18
18
1F
1F
ENDCHAR
STARTCHAR u127C
ENCODING 4732
SWIDTH 666 0
DWIDTH 8 0
BBX 8 12 0 -4
BITMAP
FF
99
18
18
FF
99
18
18
1E
12
1E
00
ENDCHAR
STARTCHAR u003B
ENCODING 59
SWIDTH 666 0
DWIDTH 8 0
BBX 8 12 0 -4
BITMAP
00
00
00
0C
0C
00
00
0C
0C
0C
18
00
ENDCHAR
STARTCHAR u1278
ENCODING 4728
SWIDTH 666 0
DWIDTH 8 0
BBX 8 12 0 -4
BITMAP
FF
99
18
18
FF
99
18
18
18
18
18
00
ENDCHAR
STARTCHAR u1224
ENCODING 4644
SWIDTH 666 0
DWIDTH 8 0
BBX 8 12 0 -4
BITMAP
D6
D6
D6
D6
D6
7E
06
0C
18
1E
12
1E
ENDCHAR
STARTCHAR u1357
ENCODING 4951
SWIDTH 666 0
DWIDTH 8 0
BBX 8 12 0 -4
BITMAP
FE
92
10
10
10
10
10
10
10
7C
44
00
ENDCHAR
STARTCHAR u25BC
ENCODING 9660
SWIDTH 666 0
DWIDTH 8 0
BBX 8 12 0 -4
BITMAP
00
00
00
C0
7C
6E
6C
6C
6C
00
00
00
ENDCHAR
STARTCHAR u0035
ENCODING 53
SWIDTH 666 0
DWIDTH 8 0
BBX 8 12 0 -4
BITMAP
00
FE
C0
C0
C0
FC
06
06
C6
7C
00
00
ENDCHAR
STARTCHAR u1246
ENCODING 4678
SWIDTH 666 0
DWIDTH 8 0
BBX 8 12 0 -4
BITMAP
3C
24
3C
18
7E
DB
DB
7E
18
18
18
00
ENDCHAR
STARTCHAR u12D6
ENCODING 4822
SWIDTH 666 0
DWIDTH 8 0
BBX 8 12 0 -4
BITMAP
78
CC
CC
CC
CC
78
60
C0
C0
C0
C0
00
ENDCHAR
STARTCHAR u1366
ENCODING 4966
SWIDTH 666 0
DWIDTH 8 0
BBX 8 12 0 -4
BITMAP
00
00
18
18
00
0F
00
18
18
00
00
00
ENDCHAR
STARTCHAR u1350
ENCODING 4944
SWIDTH 666 0
DWIDTH 8 0
BBX 8 12 0 -4
BITMAP
FE
92
10
10
10
10
10
10
10
10
10
00
ENDCHAR
STARTCHAR u1232
ENCODING 4658
SWIDTH 666 0
DWIDTH 8 0
BBX 8 12 0 -4
BITMAP
30
30
30
78
CC
CC
CC
CC
CC
CF
CF
00
ENDCHAR
STARTCHAR u136E
ENCODING 4974
SWIDTH 666 0
DWIDTH 8 0
BBX 8 12 0 -4
BITMAP
FF
C3
7C
6C
0C
18
1E
32
3E
00
FF
C3
ENDCHAR
STARTCHAR u1228
ENCODING 4648
SWIDTH 666 0
DWIDTH 8 0
BBX 8 12 0 -4
BITMAP
30
30
30
30
30
30
60
C0
C0
FE
7E
00
ENDCHAR
STARTCHAR u1296
ENCODING 4758
SWIDTH 666 0
DWIDTH 8 0
BBX 8 12 0 -4
BITMAP
7E
D2
CE
C0
78
18
18
18
18
18
18
00
ENDCHAR
STARTCHAR u0069
ENCODING 105
SWIDTH 666 0
DWIDTH 8 0
BBX 8 12 0 -4
BITMAP
00
18
18
00
38
18
18
18
18
3C
00
00
ENDCHAR
STARTCHAR u12F0
ENCODING 4848
SWIDTH 666 0
DWIDTH 8 0
BBX 8 12 0 -4
BITMAP
78
CC
CC
CC
F8
60
30
78
CC
CC
CC
00
ENDCHAR
STARTCHAR u1220
ENCODING 4640
SWIDTH 666 0
DWIDTH 8 0
BBX 8 12 0 -4
BITMAP
00
D6
D6
D6
D6
D6
D6
DC
D0
70
00
00
ENDCHAR
STARTCHAR u1240
ENCODING 4672
SWIDTH 666 0
DWIDTH 8 0
BBX 8 12 0 -4
BITMAP
18
18
18
7E
DB
DB
7E
18
18
18
18
00
ENDCHAR
STARTCHAR u1237
ENCODING 4663
SWIDTH 666 0
DWIDTH 8 0
BBX 8 12 0 -4
BITMAP
30
30
78
CC
CC
CC
CC
0C
0C
3E
22
00
ENDCHAR
STARTCHAR u132A
ENCODING 4906
SWIDTH 666 0
DWIDTH 8 0
BBX 8 12 0 -4
BITMAP
7C
92
92
92
93
93
92
92
92
DA
DA
00
ENDCHAR
STARTCHAR u0055
ENCODING 85
SWIDTH 666 0
DWIDTH 8 0
BBX 8 12 0 -4
BITMAP
00
C6
C6
C6
C6
C6
C6
C6
C6
7C
00
00
ENDCHAR
STARTCHAR u1255
ENCODING 4693
SWIDTH 666 0
DWIDTH 8 0
BBX 8 12 0 -4
BITMAP
FC
30
18
18
7E
DB
DB
7E
18
18
18
00
ENDCHAR
STARTCHAR u006F
ENCODING 111
SWIDTH 666 0
DWIDTH 8 0
BBX 8 12 0 -4
BITMAP
00
00
00
00
7C
C6
C6
C6
C6
7C
00
00
ENDCHAR
STARTCHAR u0026
ENCODING 38
SWIDTH 666 0
DWIDTH 8 0
BBX 8 12 0 -4
BITMAP
00
38
6C
38
38
76
F6
CE
CC
76
00
00
ENDCHAR
STARTCHAR u137B
ENCODING 4987
SWIDTH 666 0
DWIDTH 8 0
BBX 8 12 0 -4
BITMAP
FF
C3
3C
66
66
2C
30
30
30
30
FF
C3
ENDCHAR
STARTCHAR u12AE
ENCODING 4782
SWIDTH 666 0
DWIDTH 8 0
BBX 8 12 0 -4
BITMAP
80
80
BC
66
66
66
66
66
60
60
60
00
ENDCHAR
STARTCHAR u1362
ENCODING 4962
SWIDTH 666 0
DWIDTH 8 0
BBX 8 12 0 -4
BITMAP
00
00
00
00
6C
6C
00
6C
6C
00
00
00
ENDCHAR
STARTCHAR u12A8
ENCODING 4776
SWIDTH 666 0
DWIDTH 8 0
BBX 8 12 0 -4
BITMAP
80
80
BC
66
66
66
66
66
66
66
66
00
ENDCHAR
STARTCHAR u0022
ENCODING 34
SWIDTH 666 0
DWIDTH 8 0
BBX 8 12 0 -4
BITMAP
00
36
36
14
00
00
00
00
00
00
00
00
ENDCHAR
STARTCHAR u12B9
ENCODING 4793
SWIDTH 666 0
DWIDTH 8 0
BBX 8 12 0 -4
BITMAP
30
E0
9C
66
66
66
67
67
66
66
66
00
ENDCHAR
STARTCHAR u2319
ENCODING 8985
SWIDTH 666 0
DWIDTH 8 0
BBX 8 12 0 -4
BITMAP
00
18
3C
7E
18
18
18
7E
3C
18
00
00
ENDCHAR
STARTCHAR u1303
ENCODING 4867
SWIDTH 666 0
DWIDTH 8 0
BBX 8 12 0 -4
BITMAP
FC
30
78
CC
CC
F8
60
30
7C
E6
06
06
ENDCHAR
STARTCHAR u12D1
ENCODING 4817
SWIDTH 666 0
DWIDTH 8 0
BBX 8 12 0 -4
BITMAP
18
7C
CC
CC
CC
CF
CC
CC
CC
FC
60
00
ENDCHAR
ENDFONT
